<?xml version="1.0" encoding="UTF-8" standalone="no"?>
<!DOCTYPE svg PUBLIC "-//W3C//DTD SVG 1.1//EN" "http://www.w3.org/Graphics/SVG/1.1/DTD/svg11.dtd">
<svg width="100%" height="100%" viewBox="0 0 470 470" version="1.1" xmlns="http://www.w3.org/2000/svg" xmlns:xlink="http://www.w3.org/1999/xlink" xml:space="preserve" xmlns:serif="http://www.serif.com/" style="fill-rule:evenodd;clip-rule:evenodd;stroke-linejoin:round;stroke-miterlimit:2;">
    <g transform="matrix(1.504,0,0,1.504,9.4,-0.428186)">
        <path d="M140.008,80.44L138.759,80.44C133.581,80.44 128.402,80.529 123.228,80.417C116.54,80.273 111.883,83.276 109.013,89.206C108.095,91.103 107.284,93.051 106.401,95.027L105.433,95.027C106.605,90.111 107.766,85.243 108.951,80.273L97.156,80.273C97.138,79.925 97.124,79.645 97.108,79.346C97.873,79.23 98.57,79.162 99.25,79.013C102.034,78.404 103.697,76.475 104.699,74.002C106.57,69.384 108.409,64.746 110.063,60.046C113.616,49.953 117.071,39.824 120.501,29.686C121.403,27.022 122.129,24.285 121.907,21.413C121.842,20.564 121.705,19.721 121.603,18.89C123.349,18.098 125.093,17.307 126.921,16.476C127.293,17.582 127.696,18.756 128.083,19.936C133.69,37.015 139.281,54.1 144.926,71.166C145.488,72.866 146.341,74.476 147.141,76.086C147.418,76.644 147.885,77.146 148.364,77.559C150.273,79.205 151.151,79.344 153.551,77.903C155.052,77.003 155.886,75.548 156.085,73.824C156.323,71.761 156.536,69.685 156.572,67.611C156.671,61.794 156.666,55.974 156.712,50.156C156.767,42.959 156.868,35.764 156.866,28.568C156.865,27.056 156.666,25.5 156.271,24.042C155.392,20.812 153.199,19.078 149.867,18.778C149.204,18.717 148.977,18.497 149.219,17.728L150.142,17.728C153.451,17.728 156.76,17.752 160.068,17.709C160.779,17.7 161.147,17.94 161.51,18.536C172.211,36.097 182.933,53.645 193.654,71.195C193.822,71.469 194.009,71.733 194.39,71.966C194.39,71.064 194.388,70.163 194.391,69.261C194.412,61.911 194.431,54.56 194.458,47.209C194.481,40.686 194.576,34.162 194.498,27.639C194.477,25.93 194.137,24.156 193.576,22.539C192.723,20.084 190.648,19.057 188.162,18.784C187.859,18.751 187.528,18.794 187.258,18.683C187.1,18.619 186.967,18.323 186.959,18.127C186.955,18 187.185,17.84 187.341,17.744C187.43,17.688 187.579,17.728 187.702,17.728C192.542,17.728 197.382,17.728 202.222,17.731C202.401,17.731 202.58,17.768 202.776,17.789C202.909,18.259 203.007,18.63 202.341,18.748C197.898,19.531 196.467,21.096 196.187,25.598C196.052,27.766 196.019,29.942 196.002,32.115C195.916,42.711 195.849,53.307 195.779,63.902C195.761,66.533 195.708,69.166 195.762,71.795C195.805,73.916 196.538,75.865 197.641,77.803C196.54,78.245 195.477,78.671 194.415,79.097L194.421,79.238L202.418,79.238L202.418,80.05L202.263,80.165C198.954,80.616 196.652,82.575 195.033,85.305C192.819,89.038 190.71,92.838 188.701,96.686C185.954,101.945 183.332,107.27 180.688,112.582C180.44,113.079 180.292,113.682 180.29,114.237C180.262,120.179 180.258,126.122 180.285,132.065C180.29,133.315 180.365,134.579 180.556,135.814C180.948,138.355 181.602,140.253 184.926,140.658C184.94,140.916 184.954,141.184 184.973,141.537L180.577,141.537C182.074,142.194 183.356,142.665 184.552,143.296C191.135,146.77 195.548,152.202 197.877,159.144C202.286,172.292 200.836,184.759 192.51,196.068C189.098,200.701 184.497,203.869 178.712,204.77C170.448,206.057 163.18,203.73 157.12,197.965C151.77,192.875 148.955,186.436 147.782,179.247C146.5,171.386 147.264,163.737 150.605,156.45C153.447,150.248 157.659,145.275 164.003,142.43C165.745,141.649 167.621,141.077 169.495,140.704C171.723,140.262 172.848,138.849 173.343,136.879C173.718,135.382 173.911,133.802 173.928,132.256C173.994,126.406 173.963,120.554 173.939,114.704C173.937,114.242 173.799,113.732 173.576,113.327C168.551,104.22 163.519,95.116 158.444,86.037C157.762,84.816 156.917,83.668 156.016,82.596C154.502,80.795 152.444,80.221 150.143,80.031C148.298,79.879 147.298,80.503 146.336,82.113C135.023,101.02 123.62,119.874 112.242,138.742C112.091,138.994 111.964,139.26 111.758,139.646C112.895,139.778 113.914,139.976 114.937,140.003C120.137,140.136 125.343,140.412 130.539,140.283C137.403,140.112 142.281,136.555 145.204,130.464C146.599,127.558 147.531,124.429 148.649,121.391C148.94,120.599 148.898,120.584 149.938,120.675C148.134,128.385 146.336,136.075 144.578,143.584C142.861,143.001 141.202,142.349 139.491,141.888C138.502,141.621 137.43,141.581 136.395,141.576C130.391,141.549 124.386,141.563 118.382,141.564C118.202,141.564 118.022,141.584 117.787,141.599C117.748,141.913 117.712,142.205 117.672,142.535C117.532,142.576 117.393,142.638 117.249,142.653C114.421,142.942 113.057,144.297 112.753,147.164C112.675,147.892 112.639,148.63 112.638,149.362C112.629,156.132 112.632,162.902 112.632,169.673L112.632,171.027C119.834,167.371 126.843,163.812 134.016,160.17C134.016,160.885 134.094,161.466 133.983,162.007C133.927,162.278 133.562,162.559 133.27,162.696C126.746,165.78 120.218,168.857 113.674,171.897C112.914,172.25 112.606,172.644 112.609,173.525C112.648,182.471 112.644,191.416 112.613,200.361C112.61,201.19 112.851,201.609 113.665,201.734C116.167,202.115 118.659,202.763 121.17,202.844C124.459,202.949 127.78,202.776 131.056,202.424C135.728,201.921 139.159,199.348 141.219,195.179C142.526,192.533 143.497,189.716 144.519,186.939C144.802,186.167 145.113,185.885 145.949,186.15C144.265,192.489 142.579,198.832 140.883,205.217C140.718,205.203 140.6,205.214 140.497,205.18C137.639,204.238 134.685,204.026 131.705,204.024C126.558,204.019 121.412,204.003 116.266,204.035C114.963,204.043 113.654,204.165 112.36,204.321C110.127,204.591 108.959,205.686 108.533,207.902C108.373,208.738 108.298,209.603 108.297,210.455C108.284,226.845 108.28,243.233 108.307,259.622C108.308,260.648 108.459,261.707 108.747,262.69C109.31,264.609 110.628,265.823 112.634,266.146C113.281,266.25 113.506,266.47 113.264,267.168L96.848,267.168C96.827,266.9 96.806,266.638 96.789,266.409L96.975,266.261C100.414,265.882 101.55,263.643 101.869,260.602C101.911,260.207 101.902,259.807 101.902,259.409C101.904,243.173 101.91,226.937 101.889,210.701C101.888,209.701 101.761,208.681 101.544,207.705C101.095,205.684 99.784,204.548 97.716,204.307C97.474,204.279 97.232,204.235 96.992,204.195L96.856,204.125C96.839,204.019 96.803,203.875 96.795,203.73C96.787,203.58 96.807,203.428 96.821,203.152C97.496,203.152 98.161,203.174 98.823,203.147C99.736,203.11 100.65,203.068 101.558,202.975C103.957,202.727 105.374,201.33 105.953,199.052C106.14,198.317 106.27,197.545 106.273,196.789C106.296,189.988 106.287,183.188 106.285,176.387C106.285,176.155 106.257,175.921 106.233,175.534C103.089,177.123 100.05,178.66 96.986,180.21C96.692,178.688 96.692,178.688 97.948,178.09C100.488,176.88 103.02,175.656 105.573,174.474C106.129,174.216 106.303,173.891 106.302,173.283C106.279,165.104 106.292,156.924 106.277,148.746C106.276,148.046 106.195,147.335 106.052,146.65C105.506,144.063 104.352,143.102 101.187,142.56C101.132,142.268 101.07,141.952 100.996,141.562C99.277,141.562 97.566,141.501 95.86,141.576C92.647,141.715 90.076,140.438 88.011,138.085C87.004,136.939 86.07,135.714 85.221,134.445C80.527,127.421 75.861,120.377 71.212,113.323C70.826,112.74 70.428,112.513 69.729,112.533C67.834,112.583 65.935,112.55 63.923,112.55C63.903,112.917 63.871,113.238 63.871,113.561C63.868,120.392 63.856,127.223 63.884,134.055C63.888,134.933 64.021,135.831 64.241,136.683C64.839,139.007 66.038,139.994 68.924,140.65C68.962,140.911 69.003,141.201 69.056,141.587L93.803,141.587C81.598,161.823 69.506,181.873 57.314,202.091C58.834,202.259 60.214,202.512 61.599,202.548C66.372,202.673 71.152,202.881 75.923,202.764C82.89,202.591 87.871,199.076 90.837,192.872C92.229,189.963 93.181,186.841 94.268,183.793C94.507,183.123 94.761,182.869 95.528,183.178C95.11,184.99 94.699,186.799 94.276,188.606C93.026,193.936 91.811,199.273 90.495,204.585C90.125,206.077 90.512,207.443 90.763,208.841C91.916,215.221 93.109,221.596 94.283,227.973C94.32,228.177 94.316,228.388 94.337,228.655L93.426,228.655C92.444,225.743 91.566,222.848 90.491,220.026C89.057,216.259 87.152,212.752 84.382,209.751C78.422,203.292 70.119,203.915 64.344,208.116C60.334,211.033 57.71,215 56.237,219.649C52.581,231.194 53.59,242.334 59.822,252.796C62.905,257.971 67.389,261.478 73.43,262.735C81.467,264.408 88.335,261.159 92.11,253.822C92.876,252.333 93.461,250.751 94.236,248.97C94.406,249.271 94.688,249.54 94.641,249.722C92.414,258.215 88.272,265.268 79.259,267.804C72.517,269.7 66.2,267.955 60.61,263.844C55.108,259.798 51.794,254.2 50.026,247.71C47.084,236.911 47.833,226.451 53.629,216.671C57.014,210.962 61.729,206.734 68.2,204.723C68.893,204.508 69.606,204.354 70.309,204.073L48.733,204.073C61.076,183.614 73.31,163.338 85.625,142.925C85.161,142.905 84.844,142.879 84.527,142.879C79.227,142.876 73.927,142.937 68.629,142.861C62.23,142.77 57.67,145.616 54.827,151.269C53.924,153.069 53.159,154.943 52.398,156.809C52.133,157.458 51.808,157.676 51.068,157.405C52.308,152.153 53.547,146.902 54.809,141.558L52.48,141.558L52.48,140.644C52.903,140.555 53.325,140.499 53.727,140.378C56.148,139.647 57.048,137.755 57.401,135.477C57.498,134.845 57.518,134.197 57.518,133.555C57.524,118.024 57.534,102.493 57.502,86.962C57.5,85.753 57.337,84.507 57.011,83.345C56.483,81.475 55.119,80.451 53.164,80.362C52.395,80.325 52.29,79.998 52.399,79.6C53.541,79.049 54.661,78.718 55.514,78.048C57.074,76.827 57.408,74.979 57.517,73.1C57.531,72.855 57.523,72.61 57.523,72.366C57.523,56.742 57.527,41.119 57.51,25.496C57.509,24.524 57.407,23.535 57.212,22.583C56.759,20.386 55.407,19.185 53.172,18.965C52.496,18.898 52.302,18.653 52.54,17.912L53.567,17.912C59.939,17.912 66.31,17.927 72.683,17.907C79.826,17.886 86.099,20.279 91.407,24.973C99.523,32.151 103.068,41.229 102.136,52.043C101.709,57.003 100.528,61.759 98.24,66.195C94.64,73.178 89.33,78.097 81.217,79.891C81.83,80.102 82.232,80.258 82.644,80.378C86.699,81.548 90.293,83.459 93.039,86.763C98.21,92.982 98.425,105.565 87.331,110.53C84.237,111.915 80.986,112.528 77.611,112.549C76.477,112.555 75.344,112.535 74.21,112.562C73.978,112.567 73.748,112.724 73.517,112.811C73.743,112.96 73.951,113.199 74.196,113.245C75.399,113.469 76.607,113.663 77.82,113.827C78.466,113.915 78.904,114.18 79.288,114.747C83.98,121.662 88.699,128.559 93.425,135.451C93.838,136.055 94.327,136.611 94.805,137.168C96.496,139.14 98.449,140.636 101.256,140.574C101.305,140.914 101.347,141.203 101.387,141.489C102.926,141.814 103.025,141.775 103.767,140.545C115.641,120.868 127.516,101.191 139.389,81.513C139.562,81.225 139.725,80.932 140.008,80.44ZM6.544,179.705C7.401,179.437 7.676,179.761 7.866,180.515C9.24,185.953 11.232,191.131 14.634,195.662C17.48,199.454 20.967,202.432 25.689,203.557C30.939,204.809 35.771,203.923 39.713,200.032C44.181,195.621 44.133,187.809 39.775,183.301C37.012,180.444 33.568,178.665 30.029,177.033C25.948,175.152 21.816,173.377 17.768,171.427C14.945,170.066 12.317,168.342 10.271,165.913C6.293,161.188 6.174,155.943 8.471,150.501C10.122,146.594 12.971,143.772 16.832,141.989C17.015,141.904 17.195,141.814 17.351,141.588L7.219,141.588C6.996,140.968 7.021,140.598 7.729,140.501C9.94,140.199 11.208,138.798 11.787,136.763C12.06,135.805 12.189,134.774 12.191,133.776C12.215,118.062 12.221,102.347 12.181,86.633C12.179,85.4 11.939,84.13 11.582,82.947C11.142,81.497 10.024,80.59 8.514,80.363C7.281,80.177 6.023,80.137 4.773,80.083C4.222,80.059 3.978,79.915 4.179,79.291L16.585,79.291L16.788,79.033C16.671,79.017 16.542,79.029 16.439,78.983C10.678,76.48 6.624,72.164 4.099,66.561C-1.921,53.2 -1.502,40.14 6.632,27.671C8.951,24.115 12.009,21.247 15.659,19.044C21.846,15.31 28.283,15.261 34.886,17.764C36.172,18.252 37.441,18.787 38.736,19.251C40.674,19.946 42.469,19.695 44.06,18.326C44.174,18.228 44.308,18.153 44.435,18.072C44.456,18.058 44.493,18.068 44.642,18.059C45.811,25.674 46.984,33.302 48.162,40.981L47.045,40.981C46.394,38.763 45.826,36.545 45.091,34.385C43.611,30.028 41.566,25.953 38.32,22.627C33.688,17.88 28.174,15.854 21.633,17.88C17.547,19.146 14.572,21.969 12.209,25.439C8.353,31.1 6.703,37.459 6.496,44.233C6.275,51.487 7.286,58.531 10.432,65.142C12.832,70.186 16.217,74.394 21.406,76.808C25.645,78.778 30.033,79.211 34.36,77.146C39.535,74.675 41.927,70.255 42.281,64.716C42.464,61.823 42.401,58.892 42.166,56.001C41.918,52.946 40.353,51.663 37.286,51.504C36.864,51.482 36.441,51.464 35.973,51.441L35.973,50.559C36.311,50.542 36.611,50.513 36.91,50.513C42.086,50.51 47.264,50.511 52.441,50.512C52.654,50.512 52.892,50.467 53.076,50.543C53.227,50.607 53.403,50.815 53.41,50.965C53.417,51.128 53.262,51.32 53.132,51.454C53.066,51.521 52.898,51.485 52.776,51.497C49.944,51.778 48.612,53.131 48.403,55.959C48.372,56.387 48.37,56.817 48.368,57.246C48.367,64.658 48.367,72.072 48.367,79.484L48.367,80.467C47.573,80.806 47.271,80.571 47.136,79.801C46.647,77.032 45.047,75.184 42.8,75.019C41.846,74.948 40.753,75.153 39.902,75.585C37.653,76.727 35.502,78.062 33.406,79.266C34.993,79.619 36.726,79.901 38.398,80.394C43.148,81.797 47.12,84.334 49.483,88.831C53.134,95.783 52.355,105.559 42.683,111.05C38.263,113.56 33.454,114.566 28.419,114.622C25.51,114.653 22.599,114.627 19.689,114.627L18.584,114.627C18.561,115.013 18.528,115.335 18.528,115.659C18.525,121.509 18.497,127.36 18.547,133.21C18.558,134.482 18.707,135.789 19.043,137.012C19.648,139.219 21.54,140.564 23.639,140.514C27.534,140.419 31.189,141.529 34.779,142.912C36.119,143.429 37.466,143.954 38.851,144.312C40.844,144.828 41.767,144.176 42.202,142.165C42.294,141.743 42.279,141.178 43.062,141.493C43.69,147.949 44.32,154.425 44.956,160.967C44.547,160.985 44.252,160.998 43.867,161.016C43.667,160.234 43.485,159.471 43.278,158.716C41.578,152.524 38.405,147.364 32.729,144.062C29.102,141.951 25.186,140.989 20.998,141.906C16.757,142.835 13.554,145.191 12.273,149.437C10.956,153.795 12.233,157.657 15.372,160.894C17.78,163.376 20.782,164.98 23.883,166.392C28.252,168.382 32.67,170.263 37.025,172.281C39.447,173.405 41.662,174.89 43.613,176.742C46.655,179.629 48.09,183.182 47.994,187.351C47.909,191.031 47.077,194.514 44.989,197.603C41.98,202.056 37.65,204.296 32.416,204.973C32.212,205 32.006,205.014 31.761,205.191C32.658,205.526 33.549,205.881 34.454,206.191C36.012,206.729 37.553,207.355 39.152,207.726C40.774,208.102 41.597,207.45 42.02,205.816C42.058,205.668 42.068,205.502 42.143,205.376C42.277,205.152 42.452,204.953 42.609,204.743C42.746,204.98 42.97,205.205 43.002,205.455C43.152,206.669 43.249,207.891 43.367,209.11C43.825,213.862 44.285,218.614 44.739,223.367C44.765,223.635 44.742,223.907 44.742,224.238L43.92,224.238C43.056,221.831 42.401,219.393 41.334,217.151C38.404,210.994 33.795,206.694 26.954,205.277C22.238,204.299 17.906,205.191 14.471,208.811C10.808,212.67 10.723,218.65 14.167,223.022C16.225,225.637 18.935,227.429 21.888,228.815C26.064,230.777 30.329,232.552 34.535,234.454C37.44,235.766 40.229,237.289 42.69,239.357C46.666,242.697 48.266,246.982 47.814,252.089C47.405,256.703 45.805,260.783 42.294,263.943C38.378,267.466 33.672,268.635 28.529,268.448C24.565,268.304 20.923,267.006 17.363,265.392C16.25,264.887 15.136,264.37 13.982,263.974C11.876,263.251 10.884,263.819 10.329,265.959C10.236,266.314 10.221,266.692 10.099,267.033C10.022,267.25 9.811,267.42 9.661,267.611C9.489,267.411 9.195,267.227 9.165,267.008C8.934,265.342 8.752,263.668 8.559,261.996C7.852,255.854 7.146,249.712 6.44,243.57C6.423,243.424 6.411,243.277 6.396,243.133C7.282,242.77 7.578,243.15 7.781,243.964C9.186,249.593 11.297,254.913 14.912,259.528C17.781,263.191 21.287,265.999 25.932,266.999C30.77,268.042 35.254,267.22 39.091,263.903C43.565,260.035 44.988,251.111 38.672,245.672C36.064,243.427 33.077,241.84 29.984,240.419C25.873,238.529 21.709,236.749 17.649,234.756C15.796,233.846 14.03,232.679 12.407,231.397C7.152,227.247 5.497,221.205 7.9,214.949C10.281,208.75 14.768,205.058 21.383,204.04C21.493,204.023 21.6,203.974 21.957,203.86C21.454,203.673 21.157,203.577 20.87,203.455C19.129,202.708 17.392,201.946 15.645,201.211C14.998,200.938 14.341,200.678 13.666,200.49C12.031,200.034 11.087,200.546 10.568,202.173C10.365,202.81 10.26,203.478 10.1,204.182C9.586,204.381 9.332,204.262 9.257,203.612C8.366,195.828 7.452,188.048 6.546,180.267C6.525,180.091 6.544,179.91 6.544,179.705ZM77.349,204.018C79.172,204.751 80.935,205.462 82.701,206.168C83.494,206.484 84.274,206.847 85.09,207.088C86.829,207.603 88.604,207.122 89.493,205.945C85.727,203.522 81.51,204.109 77.349,204.018ZM194.161,178.529C193.969,170.637 192.425,162.775 188.67,155.44C186.462,151.125 183.599,147.355 179.407,144.754C171.91,140.103 162.754,142.032 157.809,149.314C155.054,153.37 153.804,157.947 153.386,162.761C152.744,170.162 153.877,177.349 156.377,184.314C158.376,189.881 161.173,194.984 165.751,198.892C170.064,202.573 175.008,204.234 180.657,202.957C185.715,201.812 188.883,198.352 191.073,193.876C193.396,189.13 194.125,184.041 194.161,178.529ZM22.052,199.058C23.181,197.467 24.309,195.875 25.441,194.286C27.283,191.695 29.139,189.114 30.964,186.512C31.279,186.064 31.618,185.888 32.17,185.895C34.37,185.926 36.572,185.908 38.951,185.908C38.715,186.17 38.59,186.349 38.428,186.484C33.517,190.571 28.609,194.662 23.678,198.723C23.277,199.053 22.707,199.179 22.216,199.4C22.162,199.286 22.107,199.172 22.052,199.058ZM18.526,80.218L18.526,89.058C18.526,96.619 18.533,104.18 18.512,111.741C18.51,112.496 18.617,112.927 19.51,112.973C20.791,113.035 22.061,113.324 23.34,113.36C25.874,113.432 28.467,113.741 30.937,113.342C37.796,112.236 42.397,108.157 44.244,101.499C46.104,94.794 44.475,88.793 39.15,84.115C36.073,81.412 32.375,80.21 28.229,80.398C26.038,80.498 23.838,80.427 21.643,80.398C20.646,80.385 19.65,80.286 18.526,80.218ZM170.716,79.269C170.994,79.917 170.681,79.958 170.204,80.013C169.207,80.129 168.198,80.252 167.236,80.521C165.575,80.984 164.9,81.951 165.307,83.609C165.659,85.044 166.217,86.465 166.904,87.777C170.493,94.631 174.152,101.45 177.789,108.279C178.386,109.402 178.992,110.518 179.656,111.754C179.866,111.375 180.004,111.15 180.121,110.912C183.149,104.768 186.209,98.639 189.176,92.466C190.033,90.685 190.769,88.815 191.3,86.912C192.309,83.3 191.268,80.847 187.286,80.262C186.636,80.167 186.578,79.85 186.771,79.252L191.03,79.252C180.011,61.251 169.075,43.391 158.099,25.462C158.099,29.842 158.08,34.067 158.102,38.291C158.151,47.629 158.211,56.968 158.29,66.306C158.306,68.171 158.297,70.05 158.526,71.895C158.939,75.226 160.44,77.847 163.918,78.799C164.994,79.094 166.141,79.18 167.261,79.252C168.417,79.327 169.579,79.269 170.716,79.269ZM63.935,80.291L63.935,110.877C65.095,110.978 66.19,111.094 67.288,111.165C71.162,111.413 75.037,111.933 78.916,111.243C83.837,110.368 87.448,107.852 89.132,102.98C89.893,100.782 90.08,98.504 90.061,96.192C90.004,89.466 86.116,83.987 79.815,81.615C74.647,79.67 69.289,80.555 63.935,80.291ZM207.602,80.224C206.66,72.112 205.716,63.978 204.763,55.774L205.788,55.774C206.57,58.164 207.254,60.576 208.143,62.908C210.029,67.857 212.623,72.379 216.751,75.83C221.465,79.773 226.783,81.176 232.769,79.31C242.211,76.368 244.013,64.361 237.141,58.467C234.266,56.003 230.959,54.315 227.557,52.76C223.582,50.942 219.575,49.189 215.64,47.287C213.04,46.03 210.661,44.384 208.723,42.204C204.942,37.95 204.439,33.045 206.228,27.861C208.867,20.215 216.207,15.77 224.248,16.68C227.696,17.07 230.915,18.181 234.118,19.411C235.087,19.783 236.066,20.16 237.071,20.401C239.108,20.89 240.064,20.222 240.5,18.188C240.553,17.933 240.825,17.726 240.996,17.497C241.126,17.734 241.346,17.963 241.371,18.211C241.985,24.331 242.579,30.454 243.173,36.576C243.184,36.691 243.162,36.809 243.155,36.944C242.417,37.202 242.059,37.073 241.876,36.23C240.837,31.446 238.87,27.104 235.396,23.577C231.574,19.696 226.975,17.564 221.443,17.678C216.02,17.79 211.179,21.537 210.265,26.574C209.445,31.092 211.114,34.802 214.499,37.791C217.032,40.027 220.012,41.52 223.059,42.895C227.378,44.844 231.77,46.644 235.996,48.775C238.152,49.862 240.174,51.353 241.976,52.974C245.429,56.081 246.562,60.165 246.172,64.715C245.628,71.064 242.889,76.06 237.113,79.095C233.357,81.067 229.312,81.477 225.15,81.008C221.48,80.594 218.127,79.188 214.807,77.669C213.784,77.2 212.719,76.784 211.633,76.498C210.283,76.142 209.458,76.62 208.959,77.917C208.741,78.482 208.59,79.088 208.515,79.689C208.442,80.272 208.209,80.433 207.602,80.224ZM260.921,55.544C262.259,53.841 263.6,52.139 264.938,50.434C270.927,42.797 276.936,35.176 282.88,27.504C283.823,26.287 284.649,24.912 285.212,23.484C286.166,21.066 284.997,19.255 282.427,18.804C282.131,18.753 281.832,18.724 281.499,18.681L281.499,17.779L298.882,17.779L298.882,18.692C296.673,18.808 294.658,19.458 292.802,20.599C289.814,22.436 287.379,24.9 285.173,27.57C279.478,34.461 273.859,41.415 268.212,48.346C268.14,48.434 268.097,48.547 267.922,48.861C269.209,48.53 270.309,48.256 271.405,47.962C273.139,47.496 273.133,47.494 274.164,48.916C280.083,57.063 285.998,65.214 291.933,73.351C292.599,74.263 293.352,75.119 294.121,75.949C296.144,78.133 297.073,78.63 299.919,79.167C300.082,79.718 300.057,80.089 299.299,80.079C297.278,80.053 295.257,80.078 293.234,80.063C291.122,80.046 289.302,79.186 287.933,77.679C285.758,75.283 283.642,72.812 281.716,70.213C276.908,63.719 272.222,57.134 267.484,50.586C267.344,50.392 267.189,50.205 266.974,49.93C266.728,50.214 266.507,50.451 266.301,50.702C264.594,52.787 262.884,54.869 261.194,56.968C260.977,57.236 260.744,57.598 260.743,57.916C260.734,62.999 260.74,68.084 260.796,73.167C260.806,73.978 260.987,74.812 261.23,75.592C261.886,77.694 263.079,78.591 265.816,79.158L265.816,80.003L249.366,80.003L249.366,79.197L249.519,79.098C252.311,78.692 253.794,77.279 254.242,74.528C254.364,73.776 254.424,73.006 254.424,72.243C254.435,56.561 254.438,40.88 254.418,25.198C254.417,24.197 254.3,23.175 254.08,22.199C253.597,20.059 252.29,18.983 250.101,18.764C249.862,18.739 249.626,18.698 249.356,18.66L249.356,17.775L265.767,17.775C265.977,18.378 265.917,18.701 265.143,18.771C262.533,19.006 261.27,20.241 260.907,22.868C260.794,23.685 260.731,24.514 260.73,25.338C260.719,35.2 260.723,45.063 260.722,54.925L260.722,55.462L260.921,55.544ZM123.324,79.268C126.784,79.268 130.243,79.285 133.701,79.262C136.382,79.245 138.196,78.025 138.5,75.802C138.677,74.502 138.674,73.069 138.317,71.821C137.085,67.507 135.672,63.242 134.283,58.975C134.203,58.731 133.712,58.473 133.412,58.472C126.586,58.443 119.76,58.458 112.934,58.435C112.328,58.434 112.078,58.652 111.907,59.2C111.515,60.454 111.006,61.673 110.644,62.934C109.623,66.48 108.504,70.008 107.712,73.608C107.11,76.344 108.758,78.481 111.497,79.064C112.12,79.197 112.769,79.256 113.407,79.26C116.713,79.278 120.019,79.269 123.324,79.268ZM64.034,18.86C64.011,19.294 63.992,19.477 63.992,19.66C63.991,38.769 63.996,57.878 63.975,76.987C63.974,77.657 64.197,77.908 64.821,77.985C67.643,78.331 70.454,78.845 73.286,79.014C75.619,79.153 78.03,79.182 80.31,78.748C85.789,77.706 89.442,74.163 91.963,69.359C94.417,64.681 95.352,59.623 95.475,54.395C95.626,47.909 95.18,41.486 93.072,35.283C91.374,30.286 88.637,26.023 84.158,23.054C80.853,20.862 77.193,19.633 73.247,19.343C70.206,19.119 67.154,19.018 64.034,18.86ZM123.235,25.723C119.736,36.176 116.201,46.735 112.654,57.331L133.769,57.331C130.221,46.684 126.698,36.113 123.235,25.723ZM180.264,5.212C177.66,7.38 175.066,9.56 172.437,11.699C172.148,11.934 171.66,11.926 171.07,12.083C171.241,11.708 171.295,11.518 171.402,11.365C172.78,9.423 174.147,7.473 175.568,5.56C175.777,5.279 176.238,5.055 176.594,5.036C177.8,4.973 179.014,5.012 180.223,5.012L180.264,5.212Z" style="fill:rgb(240,248,255);fill-rule:nonzero;"/>
        <path d="M96.865,266.348L96.747,264.19C97.59,264.097 98.226,263.869 98.676,263.452C99.437,262.748 99.664,261.645 99.797,260.384C99.797,260.383 99.797,260.382 99.797,260.381C99.831,260.06 99.819,259.733 99.819,259.409C99.819,259.409 99.819,259.409 99.819,259.409C99.821,243.174 99.826,226.939 99.806,210.704C99.806,210.704 99.806,210.704 99.806,210.703C99.805,209.853 99.695,208.987 99.51,208.157C99.273,207.089 98.568,206.504 97.477,206.377C97.202,206.345 96.926,206.296 96.652,206.251C96.764,206.269 96.878,206.279 96.992,206.279L96.72,206.203C96.425,206.184 96.145,206.103 95.894,205.972L95.894,205.972C95.327,205.677 94.909,205.127 94.8,204.46C94.773,204.296 94.727,204.07 94.715,203.843C94.704,203.636 94.721,203.426 94.74,203.047C94.796,201.939 95.711,201.069 96.821,201.069C97.467,201.069 98.104,201.091 98.738,201.065C98.739,201.065 98.739,201.065 98.739,201.065C99.609,201.03 100.48,200.992 101.344,200.903C102.772,200.755 103.589,199.895 103.934,198.539C103.934,198.539 103.934,198.539 103.934,198.538C104.079,197.967 104.187,197.368 104.19,196.781C104.21,190.819 104.205,184.858 104.202,178.895L97.927,182.069C97.756,182.155 97.577,182.216 97.394,182.252C97.603,182.671 97.67,183.161 97.558,183.647C97.14,185.46 96.728,187.272 96.304,189.081C96.304,189.082 96.304,189.082 96.304,189.082C95.052,194.42 93.835,199.766 92.517,205.087C92.517,205.087 92.517,205.087 92.517,205.087C92.222,206.275 92.613,207.358 92.813,208.471C93.966,214.849 95.158,221.221 96.332,227.596C96.333,227.599 96.333,227.602 96.334,227.606C96.382,227.873 96.387,228.147 96.414,228.497C96.458,229.075 96.259,229.646 95.865,230.071C95.471,230.497 94.917,230.738 94.337,230.738L93.426,230.738C92.532,230.738 91.737,230.168 91.452,229.321C90.478,226.435 89.609,223.564 88.544,220.768C88.544,220.768 88.544,220.768 88.544,220.768C87.205,217.25 85.438,213.967 82.851,211.164C82.851,211.164 82.851,211.164 82.851,211.164C77.712,205.594 70.549,206.178 65.569,209.801C61.93,212.449 59.56,216.058 58.223,220.278C54.754,231.232 55.698,241.803 61.612,251.729C61.612,251.73 61.612,251.73 61.612,251.73C64.388,256.39 68.414,259.564 73.855,260.696C73.855,260.696 73.855,260.696 73.855,260.696C80.912,262.165 86.943,259.312 90.257,252.869C90.257,252.869 90.257,252.869 90.257,252.869C91.003,251.418 91.57,249.875 92.325,248.139C92.641,247.414 93.339,246.93 94.128,246.889C94.917,246.848 95.662,247.257 96.05,247.946C96.265,248.327 96.537,248.71 96.622,248.982C96.764,249.437 96.757,249.862 96.657,250.247C96.657,250.248 96.656,250.249 96.656,250.25C94.235,259.483 89.62,267.053 79.823,269.809C79.823,269.809 79.823,269.809 79.823,269.809C72.435,271.887 65.502,270.027 59.376,265.523C59.376,265.523 59.376,265.523 59.376,265.523C54.967,262.28 51.856,258.116 49.776,253.314C49.175,258.037 47.342,262.202 43.687,265.491C43.687,265.491 43.687,265.491 43.687,265.491C39.35,269.394 34.151,270.737 28.453,270.53C24.214,270.376 20.31,269.016 16.503,267.29C16.503,267.289 16.503,267.289 16.503,267.289C15.45,266.812 14.397,266.319 13.305,265.944C13.083,265.868 12.779,265.81 12.608,265.781C12.533,265.946 12.409,266.239 12.345,266.483C12.345,266.483 12.345,266.484 12.345,266.485C12.237,266.899 12.203,267.336 12.061,267.734C11.912,268.151 11.587,268.532 11.298,268.899C10.913,269.388 10.329,269.68 9.706,269.694C9.101,269.707 8.52,269.456 8.116,269.007C8.094,268.986 7.728,268.635 7.592,268.455C7.313,268.087 7.156,267.69 7.101,267.292C6.868,265.61 6.684,263.921 6.49,262.234C5.783,256.092 5.077,249.95 4.371,243.814C4.353,243.658 4.34,243.502 4.324,243.349C4.228,242.429 4.75,241.556 5.606,241.205C6.614,240.792 7.367,240.872 7.929,241.08C8.75,241.383 9.465,242.106 9.803,243.46C11.136,248.804 13.12,253.862 16.552,258.243C16.552,258.243 16.553,258.243 16.553,258.243C19.116,261.516 22.22,264.069 26.371,264.963C26.371,264.963 26.371,264.963 26.371,264.963C30.544,265.862 34.419,265.188 37.728,262.327C41.428,259.128 42.536,251.749 37.312,247.251C34.854,245.135 32.03,243.652 29.114,242.312C29.114,242.312 29.114,242.312 29.113,242.312C24.987,240.414 20.807,238.627 16.731,236.627C16.731,236.627 16.731,236.627 16.731,236.627C14.746,235.652 12.854,234.404 11.116,233.032C11.116,233.032 11.116,233.032 11.116,233.032C5.1,228.281 3.204,221.364 5.955,214.202C7.921,209.082 11.172,205.489 15.705,203.5L14.835,203.131C14.27,202.892 13.697,202.662 13.107,202.497C13.107,202.497 13.106,202.497 13.106,202.497C12.987,202.464 12.824,202.441 12.716,202.429C12.666,202.527 12.593,202.681 12.553,202.806C12.368,203.388 12.278,204.001 12.131,204.644C11.978,205.32 11.498,205.875 10.852,206.125C9.78,206.54 8.979,206.339 8.406,205.979C7.893,205.657 7.328,205.066 7.187,203.851C7.187,203.85 7.187,203.849 7.187,203.848C6.296,196.067 5.382,188.288 4.476,180.508C4.476,180.508 4.476,180.507 4.476,180.507C4.447,180.255 4.46,179.998 4.46,179.705C4.46,178.795 5.052,177.989 5.921,177.717C7.218,177.311 8.057,177.599 8.661,178.028C9.184,178.399 9.638,179.019 9.886,180.005C11.192,185.174 13.067,190.104 16.3,194.411C16.3,194.411 16.3,194.411 16.3,194.411C17.431,195.917 18.668,197.289 20.064,198.438C20.128,198.231 20.224,198.034 20.353,197.853C21.483,196.261 22.611,194.667 23.743,193.078C25.583,190.491 27.436,187.914 29.259,185.316C29.259,185.315 29.26,185.315 29.26,185.314C30.027,184.222 30.852,183.794 32.198,183.812C32.199,183.812 32.199,183.812 32.199,183.812C33.878,183.836 35.557,183.831 37.315,183.827C34.915,181.689 32.063,180.265 29.156,178.925C25.065,177.039 20.922,175.259 16.864,173.304C13.776,171.816 10.915,169.912 8.677,167.255C8.677,167.254 8.677,167.254 8.677,167.254C4.142,161.868 3.933,155.896 6.552,149.691C6.552,149.69 6.552,149.69 6.552,149.69C7.545,147.339 8.922,145.335 10.652,143.672L7.219,143.672C6.341,143.672 5.557,143.121 5.26,142.295C4.814,141.059 5.045,140.129 5.505,139.507C5.845,139.048 6.404,138.579 7.447,138.437C7.447,138.437 7.447,138.437 7.447,138.437C8.745,138.259 9.443,137.388 9.783,136.193C9.783,136.193 9.783,136.192 9.783,136.192C10.004,135.416 10.106,134.58 10.108,133.772C10.131,118.061 10.138,102.35 10.098,86.638C10.098,86.637 10.098,86.637 10.098,86.636C10.096,85.604 9.887,84.542 9.588,83.551C9.392,82.906 8.876,82.524 8.205,82.423C8.204,82.423 8.204,82.423 8.204,82.423C7.043,82.248 5.859,82.215 4.684,82.164C3.672,82.121 3.026,81.731 2.642,81.302C2.189,80.796 1.761,80.002 2.196,78.653C2.473,77.791 3.274,77.208 4.179,77.208L9.543,77.208C6.384,74.614 3.951,71.303 2.2,67.417C2.2,67.417 2.2,67.417 2.2,67.417C-4.129,53.37 -3.664,39.642 4.887,26.533C7.379,22.712 10.661,19.628 14.582,17.26C14.583,17.26 14.583,17.26 14.583,17.26C21.354,13.173 28.397,13.076 35.625,15.816C35.625,15.816 35.625,15.816 35.625,15.816C36.899,16.299 38.156,16.83 39.439,17.29C39.439,17.29 39.439,17.29 39.439,17.29C40.626,17.715 41.728,17.584 42.701,16.747C42.702,16.746 42.702,16.746 42.703,16.745C42.889,16.585 43.102,16.451 43.303,16.323C43.434,16.237 43.617,16.032 44.523,15.98C45.595,15.918 46.539,16.682 46.702,17.743C47.871,25.358 49.043,32.985 50.221,40.665C50.314,41.265 50.139,41.876 49.743,42.337C49.347,42.799 48.77,43.064 48.162,43.064L47.045,43.064C46.12,43.064 45.306,42.455 45.046,41.567C44.403,39.378 43.845,37.188 43.119,35.055C43.119,35.055 43.119,35.055 43.119,35.055C41.739,30.994 39.855,27.183 36.829,24.082C32.778,19.93 27.971,18.098 22.25,19.87C22.25,19.87 22.25,19.87 22.25,19.87C18.628,20.992 16.025,23.537 13.931,26.611C13.931,26.611 13.931,26.612 13.931,26.612C10.304,31.937 8.773,37.924 8.579,44.296C8.579,44.296 8.579,44.296 8.579,44.296C8.368,51.216 9.312,57.94 12.313,64.246C12.313,64.246 12.313,64.246 12.313,64.246C14.502,68.847 17.553,72.717 22.285,74.919C25.943,76.619 29.728,77.048 33.462,75.266C37.897,73.149 39.899,69.33 40.202,64.584C40.379,61.79 40.316,58.961 40.089,56.17C40.089,56.17 40.089,56.17 40.089,56.17C40.018,55.292 39.855,54.632 39.392,54.217C38.889,53.766 38.136,53.634 37.178,53.584C36.759,53.563 36.338,53.545 35.872,53.522C34.762,53.469 33.889,52.553 33.889,51.441L33.889,50.559C33.889,49.45 34.759,48.535 35.867,48.479C36.244,48.459 36.577,48.43 36.908,48.43C42.086,48.427 47.264,48.428 52.441,48.429C52.927,48.429 53.456,48.446 53.875,48.619C53.876,48.62 53.878,48.621 53.88,48.621C54.286,48.791 54.761,49.162 55.059,49.603C55.255,49.893 55.378,50.204 55.44,50.496C55.439,42.164 55.436,33.831 55.427,25.498C55.426,24.665 55.338,23.819 55.171,23.003C54.925,21.807 54.184,21.158 52.967,21.038C52.967,21.038 52.967,21.038 52.967,21.038C51.768,20.92 51.121,20.385 50.755,19.809C50.419,19.28 50.169,18.484 50.556,17.276C50.832,16.414 51.634,15.828 52.54,15.828L53.567,15.828C59.936,15.828 66.306,15.843 72.676,15.824C72.676,15.824 72.676,15.824 72.676,15.824C80.349,15.801 87.086,18.371 92.787,23.412C92.787,23.412 92.787,23.412 92.787,23.412C101.426,31.052 105.203,40.712 104.212,52.222C104.212,52.222 104.212,52.222 104.212,52.222C103.761,57.455 102.505,62.469 100.092,67.15C97.134,72.886 93.096,77.316 87.479,79.964C90.197,81.246 92.623,83.004 94.641,85.431C100.514,92.495 100.783,106.792 88.183,112.431C86.033,113.394 83.814,114.016 81.534,114.345C86.051,121 90.594,127.639 95.143,134.273C95.143,134.274 95.143,134.274 95.143,134.274C95.515,134.816 95.958,135.312 96.387,135.812C97.666,137.304 99.087,138.538 101.211,138.492C101.637,138.482 102.039,138.602 102.376,138.818L136.343,82.529C131.956,82.546 127.568,82.595 123.183,82.5C117.396,82.376 113.371,84.983 110.888,90.114C109.979,91.991 109.177,93.92 108.303,95.877C107.967,96.627 107.222,97.11 106.401,97.11L105.433,97.11C104.795,97.11 104.193,96.818 103.798,96.318C103.402,95.817 103.258,95.164 103.406,94.543C104.376,90.477 105.338,86.443 106.313,82.357L97.156,82.357C96.048,82.357 95.134,81.489 95.076,80.383C95.058,80.036 95.044,79.756 95.028,79.458C94.97,78.387 95.735,77.447 96.795,77.286C97.512,77.178 98.166,77.118 98.803,76.978C98.804,76.978 98.804,76.978 98.805,76.978C100.859,76.528 102.029,75.045 102.768,73.22C102.768,73.22 102.768,73.22 102.768,73.219C104.628,68.631 106.454,64.023 108.098,59.354C111.648,49.269 115.1,39.148 118.527,29.019C118.527,29.019 118.527,29.018 118.527,29.018C119.34,26.619 120.03,24.16 119.83,21.574C119.83,21.574 119.83,21.574 119.83,21.574C119.767,20.756 119.634,19.944 119.535,19.145C119.424,18.241 119.913,17.37 120.742,16.994C122.487,16.201 124.231,15.41 126.06,14.579C126.597,14.336 127.211,14.331 127.752,14.566C128.293,14.801 128.708,15.254 128.896,15.812C129.27,16.923 129.674,18.102 130.062,19.286C135.669,36.364 141.259,53.447 146.904,70.512C146.904,70.512 146.904,70.512 146.904,70.513C147.435,72.119 148.25,73.637 149.007,75.159C149.008,75.16 149.008,75.161 149.008,75.162C149.166,75.479 149.453,75.747 149.725,75.981C150.235,76.421 150.534,76.78 150.939,76.812C151.373,76.847 151.79,76.53 152.478,76.117C152.478,76.117 152.479,76.117 152.479,76.117C153.404,75.561 153.893,74.648 154.015,73.585C154.245,71.589 154.455,69.582 154.489,67.576C154.588,61.765 154.583,55.951 154.628,50.14C154.628,50.14 154.628,50.14 154.628,50.14C154.684,42.949 154.785,35.759 154.783,28.569C154.782,27.24 154.608,25.871 154.26,24.588C153.634,22.285 152.056,21.067 149.68,20.853C149.68,20.853 149.679,20.852 149.679,20.852C148.528,20.748 147.869,20.253 147.489,19.701C147.127,19.177 146.832,18.372 147.233,17.101C147.506,16.234 148.31,15.645 149.219,15.645L150.142,15.645C153.442,15.645 156.742,15.668 160.041,15.625C160.042,15.625 160.042,15.625 160.043,15.625C161.637,15.606 162.476,16.116 163.289,17.452C172.954,33.312 182.636,49.163 192.32,65.014C192.336,59.077 192.353,53.139 192.374,47.201C192.398,40.689 192.493,34.176 192.414,27.664C192.414,27.664 192.414,27.664 192.414,27.663C192.397,26.175 192.096,24.631 191.608,23.223C191.042,21.594 189.583,21.036 187.934,20.855C187.934,20.855 187.934,20.855 187.934,20.855C187.439,20.801 186.909,20.791 186.468,20.611C186.126,20.471 185.767,20.221 185.477,19.846C185.132,19.4 184.897,18.712 184.877,18.206C184.877,18.203 184.877,18.2 184.877,18.197C184.865,17.825 184.943,17.421 185.169,17.021C185.367,16.671 185.85,16.214 186.235,15.979C186.633,15.729 187.794,15.648 187.794,15.648C187.794,15.648 187.731,15.645 187.702,15.645C192.543,15.645 197.383,15.645 202.222,15.648C202.474,15.648 202.726,15.688 203.002,15.718C203.846,15.81 204.549,16.404 204.78,17.22C205.043,18.147 204.961,18.957 204.622,19.54C204.331,20.042 203.831,20.601 202.703,20.799C201.073,21.087 199.946,21.401 199.25,22.173C198.558,22.941 198.368,24.084 198.266,25.727C198.134,27.858 198.102,29.996 198.085,32.131C198.085,32.131 198.085,32.131 198.085,32.132C197.999,42.727 197.932,53.322 197.863,63.916C197.863,63.916 197.863,63.916 197.863,63.917C197.845,66.529 197.792,69.142 197.845,71.752C197.845,71.753 197.845,71.753 197.845,71.753C197.881,73.529 198.528,75.15 199.452,76.773C199.521,76.895 199.578,77.023 199.62,77.154L202.418,77.154C203.569,77.154 204.502,78.087 204.502,79.238L204.502,80.05C204.502,80.739 204.167,81.351 203.65,81.73L203.651,81.729L203.65,81.73C203.349,81.952 202.985,82.094 202.591,82.126L202.263,82.248L202.544,82.229C199.911,82.588 198.113,84.195 196.825,86.368C194.63,90.068 192.539,93.836 190.548,97.65C190.548,97.65 190.548,97.65 190.548,97.65C187.806,102.898 185.191,108.21 182.553,113.51C182.552,113.511 182.552,113.511 182.552,113.512C182.442,113.732 182.374,113.999 182.373,114.245C182.373,114.245 182.373,114.246 182.373,114.246C182.346,120.183 182.341,126.119 182.368,132.055C182.368,132.056 182.368,132.056 182.368,132.056C182.373,133.204 182.44,134.363 182.615,135.496C182.77,136.502 182.86,137.404 183.484,137.984C183.851,138.326 184.402,138.496 185.178,138.59C186.181,138.712 186.952,139.537 187.007,140.546C187.021,140.805 187.035,141.074 187.053,141.43C187.068,141.709 187.026,141.985 186.932,142.243C193.233,145.985 197.519,151.526 199.852,158.482C199.852,158.482 199.852,158.482 199.852,158.482C204.488,172.306 202.942,185.412 194.188,197.303C194.188,197.304 194.187,197.304 194.187,197.304C190.444,202.387 185.38,205.84 179.033,206.829C179.033,206.829 179.033,206.829 179.032,206.829C170.097,208.221 162.236,205.708 155.684,199.474C152.018,195.987 149.46,191.909 147.771,187.405L142.896,205.752C142.637,206.729 141.714,207.379 140.706,207.293C140.334,207.261 140.072,207.234 139.845,207.158C137.2,206.287 134.463,206.109 131.703,206.107C131.703,206.107 131.703,206.107 131.703,206.107C126.562,206.103 121.42,206.086 116.279,206.119C116.279,206.119 116.279,206.119 116.278,206.119C115.054,206.126 113.825,206.243 112.609,206.39C112.008,206.462 111.529,206.588 111.193,206.902C110.854,207.219 110.695,207.694 110.58,208.295C110.444,209.003 110.381,209.736 110.38,210.458C110.368,226.845 110.363,243.232 110.39,259.618C110.39,259.619 110.39,259.619 110.39,259.62C110.391,260.45 110.513,261.308 110.746,262.104C111.069,263.202 111.816,263.904 112.964,264.089C112.964,264.089 112.964,264.089 112.964,264.089C114.033,264.261 114.646,264.74 114.998,265.253C115.378,265.805 115.662,266.61 115.233,267.85C114.942,268.689 114.152,269.251 113.264,269.251L96.848,269.251C95.759,269.251 94.853,268.412 94.771,267.326C94.75,267.058 94.728,266.795 94.711,266.565C94.793,267.652 95.699,268.492 96.789,268.492C96.789,268.492 95.494,264.777 95.494,264.777C95.494,264.777 95.67,264.636 95.67,264.636L96.961,268.306L96.972,268.295L96.91,267.168L113.264,267.168C113.506,266.47 113.281,266.25 112.634,266.146C110.628,265.823 109.31,264.609 108.747,262.69C108.459,261.707 108.308,260.648 108.307,259.622C108.28,243.233 108.284,226.845 108.297,210.455C108.298,209.603 108.373,208.738 108.533,207.902C108.959,205.686 110.127,204.591 112.36,204.321C113.654,204.165 114.963,204.043 116.266,204.035C121.412,204.003 126.558,204.019 131.705,204.024C134.685,204.026 137.639,204.238 140.497,205.18C140.6,205.214 140.718,205.203 140.883,205.217C142.579,198.832 144.265,192.489 145.949,186.15C145.113,185.885 144.802,186.167 144.519,186.939C143.497,189.716 142.526,192.533 141.219,195.179C139.159,199.348 135.728,201.921 131.056,202.424C127.78,202.776 124.459,202.949 121.17,202.844C118.659,202.763 116.167,202.115 113.665,201.734C112.851,201.609 112.61,201.19 112.613,200.361C112.644,191.416 112.648,182.471 112.609,173.525C112.606,172.644 112.914,172.25 113.674,171.897C120.218,168.857 126.746,165.78 133.27,162.696C133.562,162.559 133.927,162.278 133.983,162.007C134.094,161.466 134.016,160.885 134.016,160.17C126.843,163.812 119.834,167.371 112.632,171.027L112.632,169.673C112.632,162.902 112.629,156.132 112.638,149.362C112.639,148.63 112.675,147.892 112.753,147.164C113.057,144.297 114.421,142.942 117.249,142.653C117.393,142.638 117.532,142.576 117.672,142.535C117.712,142.205 117.748,141.913 117.787,141.599C118.022,141.584 118.202,141.564 118.382,141.564C124.386,141.563 130.391,141.549 136.395,141.576C137.43,141.581 138.502,141.621 139.491,141.888C141.202,142.349 142.861,143.001 144.578,143.584C146.336,136.075 148.134,128.385 149.938,120.675C148.898,120.584 148.94,120.599 148.649,121.391C147.531,124.429 146.599,127.558 145.204,130.464C142.281,136.555 137.403,140.112 130.539,140.283C125.343,140.412 120.137,140.136 114.937,140.003C113.914,139.976 112.895,139.778 111.758,139.646C111.964,139.26 112.091,138.994 112.242,138.742C123.62,119.874 135.023,101.02 146.336,82.113C147.298,80.503 148.298,79.879 150.143,80.031C152.444,80.221 154.502,80.795 156.016,82.596C156.917,83.668 157.762,84.816 158.444,86.037C163.519,95.116 168.551,104.22 173.576,113.327C173.799,113.732 173.937,114.242 173.939,114.704C173.963,120.554 173.994,126.406 173.928,132.256C173.911,133.802 173.718,135.382 173.343,136.879C172.848,138.849 171.723,140.262 169.495,140.704C167.621,141.077 165.745,141.649 164.003,142.43C157.659,145.275 153.447,150.248 150.605,156.45C147.264,163.737 146.5,171.386 147.782,179.247C148.955,186.436 151.77,192.875 157.12,197.965C163.18,203.73 170.448,206.057 178.712,204.77C184.497,203.869 189.098,200.701 192.51,196.068C200.836,184.759 202.286,172.292 197.877,159.144C195.548,152.202 191.135,146.77 184.552,143.296C183.356,142.665 182.074,142.194 180.577,141.537L184.973,141.537C184.954,141.184 184.94,140.916 184.926,140.658C181.602,140.253 180.948,138.355 180.556,135.814C180.365,134.579 180.29,133.315 180.285,132.065C180.258,126.122 180.262,120.179 180.29,114.237C180.292,113.682 180.44,113.079 180.688,112.582C183.332,107.27 185.954,101.945 188.701,96.686C190.71,92.838 192.819,89.038 195.033,85.305C196.652,82.575 198.954,80.616 202.263,80.165L202.418,80.05L202.418,79.238L194.421,79.238L194.415,79.097C195.477,78.671 196.54,78.245 197.641,77.803C196.538,75.865 195.805,73.916 195.762,71.795C195.708,69.166 195.761,66.533 195.779,63.902C195.849,53.307 195.916,42.711 196.002,32.115C196.019,29.942 196.052,27.766 196.187,25.598C196.467,21.096 197.898,19.531 202.341,18.748C203.007,18.63 202.909,18.259 202.776,17.789C202.58,17.768 202.401,17.731 202.222,17.731C197.382,17.728 192.542,17.728 187.702,17.728C187.579,17.728 187.43,17.688 187.341,17.744C187.185,17.84 186.955,18 186.959,18.127C186.967,18.323 187.1,18.619 187.258,18.683C187.528,18.794 187.859,18.751 188.162,18.784C190.648,19.057 192.723,20.084 193.576,22.539C194.137,24.156 194.477,25.93 194.498,27.639C194.576,34.162 194.481,40.686 194.458,47.209C194.431,54.56 194.412,61.911 194.391,69.261C194.388,70.163 194.39,71.064 194.39,71.966C194.009,71.733 193.822,71.469 193.654,71.195C182.933,53.645 172.211,36.097 161.51,18.536C161.147,17.94 160.779,17.7 160.068,17.709C156.76,17.752 153.451,17.728 150.142,17.728L149.219,17.728C148.977,18.497 149.204,18.717 149.867,18.778C153.199,19.078 155.392,20.812 156.271,24.042C156.666,25.5 156.865,27.056 156.866,28.568C156.868,35.764 156.767,42.959 156.712,50.156C156.666,55.974 156.671,61.794 156.572,67.611C156.536,69.685 156.323,71.761 156.085,73.824C155.886,75.548 155.052,77.003 153.551,77.903C151.151,79.344 150.273,79.205 148.364,77.559C147.885,77.146 147.418,76.644 147.141,76.086C146.341,74.476 145.488,72.866 144.926,71.166C139.281,54.1 133.69,37.015 128.083,19.936C127.696,18.756 127.293,17.582 126.921,16.476C125.093,17.307 123.349,18.098 121.603,18.89C121.705,19.721 121.842,20.564 121.907,21.413C122.129,24.285 121.403,27.022 120.501,29.686C117.071,39.824 113.616,49.953 110.063,60.046C108.409,64.746 106.57,69.384 104.699,74.002C103.697,76.475 102.034,78.404 99.25,79.013C98.57,79.162 97.873,79.23 97.108,79.346C97.124,79.645 97.138,79.925 97.156,80.273L108.951,80.273C107.766,85.243 106.605,90.111 105.433,95.027L106.401,95.027C107.284,93.051 108.095,91.103 109.013,89.206C111.883,83.276 116.54,80.273 123.228,80.417C128.402,80.529 133.581,80.44 138.759,80.44L140.008,80.44C139.725,80.932 139.562,81.225 139.389,81.513C127.516,101.191 115.641,120.868 103.767,140.545C103.025,141.775 102.926,141.814 101.387,141.489C101.347,141.203 101.305,140.914 101.256,140.574C98.449,140.636 96.496,139.14 94.805,137.168C94.327,136.611 93.838,136.055 93.425,135.451C88.699,128.559 83.98,121.662 79.288,114.747C78.904,114.18 78.466,113.915 77.82,113.827C76.607,113.663 75.399,113.469 74.196,113.245C73.951,113.199 73.743,112.96 73.517,112.811C73.748,112.724 73.978,112.567 74.21,112.562C75.344,112.535 76.477,112.555 77.611,112.549C80.986,112.528 84.237,111.915 87.331,110.53C98.425,105.565 98.21,92.982 93.039,86.763C90.293,83.459 86.699,81.548 82.644,80.378C82.232,80.258 81.83,80.102 81.217,79.891C89.33,78.097 94.64,73.178 98.24,66.195C100.528,61.759 101.709,57.003 102.136,52.043C103.068,41.229 99.523,32.151 91.407,24.973C86.099,20.279 79.826,17.886 72.683,17.907C66.31,17.927 59.939,17.912 53.567,17.912L52.54,17.912C52.302,18.653 52.496,18.898 53.172,18.965C55.407,19.185 56.759,20.386 57.212,22.583C57.407,23.535 57.509,24.524 57.51,25.496C57.527,41.119 57.523,56.742 57.523,72.366C57.523,72.61 57.531,72.855 57.517,73.1C57.408,74.979 57.074,76.827 55.514,78.048C54.661,78.718 53.541,79.049 52.399,79.6C52.29,79.998 52.395,80.325 53.164,80.362C55.119,80.451 56.483,81.475 57.011,83.345C57.337,84.507 57.5,85.753 57.502,86.962C57.534,102.493 57.524,118.024 57.518,133.555C57.518,134.197 57.498,134.845 57.401,135.477C57.048,137.755 56.148,139.647 53.727,140.378C53.325,140.499 52.903,140.555 52.48,140.644L52.48,141.558L54.809,141.558C53.547,146.902 52.308,152.153 51.068,157.405C51.808,157.676 52.133,157.458 52.398,156.809C53.159,154.943 53.924,153.069 54.827,151.269C57.67,145.616 62.23,142.77 68.629,142.861C73.927,142.937 79.227,142.876 84.527,142.879C84.844,142.879 85.161,142.905 85.625,142.925C73.31,163.338 61.076,183.614 48.733,204.073L70.309,204.073C69.606,204.354 68.893,204.508 68.2,204.723C61.729,206.734 57.014,210.962 53.629,216.671C47.833,226.451 47.084,236.911 50.026,247.71C51.794,254.2 55.108,259.798 60.61,263.844C66.2,267.955 72.517,269.7 79.259,267.804C88.272,265.268 92.414,258.215 94.641,249.722C94.688,249.54 94.406,249.271 94.236,248.97C93.461,250.751 92.876,252.333 92.11,253.822C88.335,261.159 81.467,264.408 73.43,262.735C67.389,261.478 62.905,257.971 59.822,252.796C53.59,242.334 52.581,231.194 56.237,219.649C57.71,215 60.334,211.033 64.344,208.116C70.119,203.915 78.422,203.292 84.382,209.751C87.152,212.752 89.057,216.259 90.491,220.026C91.566,222.848 92.444,225.743 93.426,228.655L94.337,228.655C94.316,228.388 94.32,228.177 94.283,227.973C93.109,221.596 91.916,215.221 90.763,208.841C90.512,207.443 90.125,206.077 90.495,204.585C91.811,199.273 93.026,193.936 94.276,188.606C94.699,186.799 95.11,184.99 95.528,183.178C94.761,182.869 94.507,183.123 94.268,183.793C93.181,186.841 92.229,189.963 90.837,192.872C87.871,199.076 82.89,202.591 75.923,202.764C71.152,202.881 66.372,202.673 61.599,202.548C60.214,202.512 58.834,202.259 57.314,202.091C69.506,181.873 81.598,161.823 93.803,141.587L69.056,141.587C69.003,141.201 68.962,140.911 68.924,140.65C66.038,139.994 64.839,139.007 64.241,136.683C64.021,135.831 63.888,134.933 63.884,134.055C63.856,127.223 63.868,120.392 63.871,113.561C63.871,113.238 63.903,112.917 63.923,112.55C65.935,112.55 67.834,112.583 69.729,112.533C70.428,112.513 70.826,112.74 71.212,113.323C75.861,120.377 80.527,127.421 85.221,134.445C86.07,135.714 87.004,136.939 88.011,138.085C90.076,140.438 92.647,141.715 95.86,141.576C97.566,141.501 99.277,141.562 100.996,141.562C101.07,141.952 101.132,142.268 101.187,142.56C104.352,143.102 105.506,144.063 106.052,146.65C106.195,147.335 106.276,148.046 106.277,148.746C106.292,156.924 106.279,165.104 106.302,173.283C106.303,173.891 106.129,174.216 105.573,174.474C103.02,175.656 100.488,176.88 97.948,178.09C96.692,178.688 96.692,178.688 96.986,180.21C100.05,178.66 103.089,177.123 106.233,175.534C106.257,175.921 106.285,176.155 106.285,176.387C106.287,183.188 106.296,189.988 106.273,196.789C106.27,197.545 106.14,198.317 105.953,199.052C105.374,201.33 103.957,202.727 101.558,202.975C100.65,203.068 99.736,203.11 98.823,203.147C98.161,203.174 97.496,203.152 96.821,203.152C96.807,203.428 96.787,203.58 96.795,203.73C96.803,203.875 96.839,204.019 96.856,204.125L96.992,204.195C97.232,204.235 97.474,204.279 97.716,204.307C99.784,204.548 101.095,205.684 101.544,207.705C101.761,208.681 101.888,209.701 101.889,210.701C101.91,226.937 101.904,243.173 101.902,259.409C101.902,259.807 101.911,260.207 101.869,260.602C101.55,263.643 100.414,265.882 96.975,266.261L96.865,266.348ZM6.544,179.705C7.401,179.437 7.676,179.761 7.866,180.515C9.24,185.953 11.232,191.131 14.634,195.662C17.48,199.454 20.967,202.432 25.689,203.557C30.939,204.809 35.771,203.923 39.713,200.032C44.181,195.621 44.133,187.809 39.775,183.301C37.012,180.444 33.568,178.665 30.029,177.033C25.948,175.152 21.816,173.377 17.768,171.427C14.945,170.066 12.317,168.342 10.271,165.913C6.293,161.188 6.174,155.943 8.471,150.501C10.122,146.594 12.971,143.772 16.832,141.989C17.015,141.904 17.195,141.814 17.351,141.588L7.219,141.588C6.996,140.968 7.021,140.598 7.729,140.501C9.94,140.199 11.208,138.798 11.787,136.763C12.06,135.805 12.189,134.774 12.191,133.776C12.215,118.062 12.221,102.347 12.181,86.633C12.179,85.4 11.939,84.13 11.582,82.947C11.142,81.497 10.024,80.59 8.514,80.363C7.281,80.177 6.023,80.137 4.773,80.083C4.222,80.059 3.978,79.915 4.179,79.291L16.585,79.291L16.788,79.033C16.671,79.017 16.542,79.029 16.439,78.983C10.678,76.48 6.624,72.164 4.099,66.561C-1.921,53.2 -1.502,40.14 6.632,27.671C8.951,24.115 12.009,21.247 15.659,19.044C21.846,15.31 28.283,15.261 34.886,17.764C36.172,18.252 37.441,18.787 38.736,19.251C40.674,19.946 42.469,19.695 44.06,18.326C44.174,18.228 44.308,18.153 44.435,18.072C44.456,18.058 44.493,18.068 44.642,18.059C45.811,25.674 46.984,33.302 48.162,40.981L47.045,40.981C46.394,38.763 45.826,36.545 45.091,34.385C43.611,30.028 41.566,25.953 38.32,22.627C33.688,17.88 28.174,15.854 21.633,17.88C17.547,19.146 14.572,21.969 12.209,25.439C8.353,31.1 6.703,37.459 6.496,44.233C6.275,51.487 7.286,58.531 10.432,65.142C12.832,70.186 16.217,74.394 21.406,76.808C25.645,78.778 30.033,79.211 34.36,77.146C39.535,74.675 41.927,70.255 42.281,64.716C42.464,61.823 42.401,58.892 42.166,56.001C41.918,52.946 40.353,51.663 37.286,51.504C36.864,51.482 36.441,51.464 35.973,51.441L35.973,50.559C36.311,50.542 36.611,50.513 36.91,50.513C42.086,50.51 47.264,50.511 52.441,50.512C52.654,50.512 52.892,50.467 53.076,50.543C53.227,50.607 53.403,50.815 53.41,50.965C53.417,51.128 53.262,51.32 53.132,51.454C53.066,51.521 52.898,51.485 52.776,51.497C49.944,51.778 48.612,53.131 48.403,55.959C48.372,56.387 48.37,56.817 48.368,57.246C48.367,64.658 48.367,72.072 48.367,79.484L48.367,80.467C47.573,80.806 47.271,80.571 47.136,79.801C46.647,77.032 45.047,75.184 42.8,75.019C41.846,74.948 40.753,75.153 39.902,75.585C37.653,76.727 35.502,78.062 33.406,79.266C34.993,79.619 36.726,79.901 38.398,80.394C43.148,81.797 47.12,84.334 49.483,88.831C53.134,95.783 52.355,105.559 42.683,111.05C38.263,113.56 33.454,114.566 28.419,114.622C25.51,114.653 22.599,114.627 19.689,114.627L18.584,114.627C18.561,115.013 18.528,115.335 18.528,115.659C18.525,121.509 18.497,127.36 18.547,133.21C18.558,134.482 18.707,135.789 19.043,137.012C19.648,139.219 21.54,140.564 23.639,140.514C27.534,140.419 31.189,141.529 34.779,142.912C36.119,143.429 37.466,143.954 38.851,144.312C40.844,144.828 41.767,144.176 42.202,142.165C42.294,141.743 42.279,141.178 43.062,141.493C43.69,147.949 44.32,154.425 44.956,160.967C44.547,160.985 44.252,160.998 43.867,161.016C43.667,160.234 43.485,159.471 43.278,158.716C41.578,152.524 38.405,147.364 32.729,144.062C29.102,141.951 25.186,140.989 20.998,141.906C16.757,142.835 13.554,145.191 12.273,149.437C10.956,153.795 12.233,157.657 15.372,160.894C17.78,163.376 20.782,164.98 23.883,166.392C28.252,168.382 32.67,170.263 37.025,172.281C39.447,173.405 41.662,174.89 43.613,176.742C46.655,179.629 48.09,183.182 47.994,187.351C47.909,191.031 47.077,194.514 44.989,197.603C41.98,202.056 37.65,204.296 32.416,204.973C32.212,205 32.006,205.014 31.761,205.191C32.658,205.526 33.549,205.881 34.454,206.191C36.012,206.729 37.553,207.355 39.152,207.726C40.774,208.102 41.597,207.45 42.02,205.816C42.058,205.668 42.068,205.502 42.143,205.376C42.277,205.152 42.452,204.953 42.609,204.743C42.746,204.98 42.97,205.205 43.002,205.455C43.152,206.669 43.249,207.891 43.367,209.11C43.825,213.862 44.285,218.614 44.739,223.367C44.765,223.635 44.742,223.907 44.742,224.238L43.92,224.238C43.056,221.831 42.401,219.393 41.334,217.151C38.404,210.994 33.795,206.694 26.954,205.277C22.238,204.299 17.906,205.191 14.471,208.811C10.808,212.67 10.723,218.65 14.167,223.022C16.225,225.637 18.935,227.429 21.888,228.815C26.064,230.777 30.329,232.552 34.535,234.454C37.44,235.766 40.229,237.289 42.69,239.357C46.666,242.697 48.266,246.982 47.814,252.089C47.405,256.703 45.805,260.783 42.294,263.943C38.378,267.466 33.672,268.635 28.529,268.448C24.565,268.304 20.923,267.006 17.363,265.392C16.25,264.887 15.136,264.37 13.982,263.974C11.876,263.251 10.884,263.819 10.329,265.959C10.236,266.314 10.221,266.692 10.099,267.033C10.022,267.25 9.811,267.42 9.661,267.611C9.489,267.411 9.195,267.227 9.165,267.008C8.934,265.342 8.752,263.668 8.559,261.996C7.852,255.854 7.146,249.712 6.44,243.57C6.423,243.424 6.411,243.277 6.396,243.133C7.282,242.77 7.578,243.15 7.781,243.964C9.186,249.593 11.297,254.913 14.912,259.528C17.781,263.191 21.287,265.999 25.932,266.999C30.77,268.042 35.254,267.22 39.091,263.903C43.565,260.035 44.988,251.111 38.672,245.672C36.064,243.427 33.077,241.84 29.984,240.419C25.873,238.529 21.709,236.749 17.649,234.756C15.796,233.846 14.03,232.679 12.407,231.397C7.152,227.247 5.497,221.205 7.9,214.949C10.281,208.75 14.768,205.058 21.383,204.04C21.493,204.023 21.6,203.974 21.957,203.86C21.454,203.673 21.157,203.577 20.87,203.455C19.129,202.708 17.392,201.946 15.645,201.211C14.998,200.938 14.341,200.678 13.666,200.49C12.031,200.034 11.087,200.546 10.568,202.173C10.365,202.81 10.26,203.478 10.1,204.182C9.586,204.381 9.332,204.262 9.257,203.612C8.366,195.828 7.452,188.048 6.546,180.267C6.525,180.091 6.544,179.91 6.544,179.705ZM50.433,80.729C50.342,81.457 49.871,82.091 49.184,82.384C48.358,82.736 47.696,82.762 47.167,82.636C48.819,84.045 50.226,85.767 51.327,87.862C51.327,87.862 51.327,87.862 51.327,87.862C55.433,95.681 54.589,106.686 43.711,112.862C38.979,115.55 33.834,116.645 28.442,116.705C28.442,116.705 28.442,116.705 28.442,116.705C25.831,116.733 23.22,116.715 20.61,116.712C20.605,122.205 20.583,127.699 20.631,133.192C20.631,133.192 20.631,133.192 20.631,133.192C20.64,134.286 20.764,135.41 21.052,136.461C21.052,136.461 21.052,136.461 21.052,136.461C21.388,137.688 22.422,138.459 23.589,138.431C27.761,138.33 31.683,139.487 35.528,140.968C35.528,140.968 35.528,140.968 35.529,140.968C36.794,141.456 38.064,141.957 39.372,142.295C39.372,142.295 39.373,142.295 39.373,142.295C39.556,142.342 39.802,142.37 39.949,142.383C40.012,142.228 40.117,141.949 40.166,141.725C40.326,140.986 40.66,140.223 41.167,139.829C41.672,139.435 42.471,139.01 43.839,139.56C44.56,139.85 45.06,140.517 45.135,141.291C45.764,147.747 46.394,154.223 47.03,160.765C47.085,161.334 46.904,161.901 46.53,162.332C46.155,162.764 45.62,163.023 45.049,163.048C44.642,163.066 44.349,163.079 43.965,163.097C42.977,163.144 42.093,162.49 41.848,161.532C41.651,160.762 41.473,160.011 41.269,159.268C41.269,159.268 41.269,159.267 41.269,159.267C39.717,153.616 36.862,148.877 31.681,145.862C28.513,144.02 25.101,143.14 21.444,143.941C21.444,143.941 21.444,143.941 21.444,143.941C17.979,144.7 15.314,146.57 14.267,150.039C14.267,150.039 14.267,150.039 14.267,150.039C13.185,153.622 14.287,156.782 16.868,159.443C19.092,161.736 21.882,163.192 24.746,164.496C24.746,164.496 24.746,164.496 24.747,164.496C29.119,166.488 33.542,168.371 37.9,170.391C37.901,170.391 37.901,170.391 37.901,170.391C40.529,171.61 42.931,173.222 45.047,175.231C48.537,178.543 50.187,182.617 50.076,187.399C49.982,191.483 49.032,195.342 46.715,198.77C46.715,198.77 46.715,198.77 46.715,198.77C45.667,200.322 44.476,201.636 43.157,202.734C43.683,202.876 44.138,203.222 44.416,203.705C44.689,204.181 45.007,204.696 45.069,205.198C45.069,205.198 45.069,205.199 45.069,205.199C45.222,206.432 45.321,207.672 45.441,208.908C45.441,208.909 45.441,208.909 45.441,208.91C45.898,213.663 46.358,218.415 46.813,223.168C46.844,223.497 46.826,223.831 46.826,224.238C46.826,225.388 45.893,226.321 44.742,226.321L43.92,226.321C43.041,226.321 42.256,225.769 41.959,224.941C41.119,222.601 40.491,220.227 39.453,218.046C36.814,212.501 32.692,208.593 26.531,207.317C26.531,207.317 26.531,207.317 26.531,207.317C22.551,206.492 18.881,207.19 15.982,210.245C15.982,210.245 15.982,210.245 15.982,210.245C13.021,213.365 13.02,218.199 15.804,221.734C17.658,224.088 20.114,225.681 22.773,226.929C22.773,226.929 22.773,226.929 22.774,226.929C26.941,228.887 31.196,230.658 35.393,232.555C38.472,233.947 41.421,235.57 44.03,237.762C44.965,238.547 45.785,239.378 46.494,240.254C45.605,231.728 47.183,223.461 51.837,215.609C51.837,215.609 51.837,215.608 51.837,215.608C54.114,211.768 56.956,208.556 60.465,206.156L48.733,206.156C47.982,206.156 47.288,205.752 46.919,205.097C46.55,204.443 46.561,203.64 46.949,202.997L81.961,144.965C77.506,144.975 73.052,145.008 68.599,144.944C63.076,144.865 59.143,147.325 56.689,152.205C55.81,153.956 55.067,155.78 54.327,157.596C54.327,157.596 54.327,157.597 54.326,157.598C53.951,158.516 53.416,159.034 52.83,159.322C52.223,159.62 51.437,159.759 50.35,159.36C49.36,158.997 48.798,157.952 49.04,156.926L52.182,143.619C51.172,143.475 50.396,142.607 50.396,141.558L50.396,140.644C50.396,139.659 51.086,138.809 52.05,138.606C52.414,138.529 52.779,138.488 53.125,138.384C53.125,138.383 53.125,138.383 53.125,138.383C54.672,137.917 55.117,136.614 55.342,135.159C55.342,135.159 55.342,135.159 55.342,135.159C55.423,134.632 55.434,134.09 55.434,133.555C55.434,133.555 55.434,133.555 55.434,133.554C55.441,118.025 55.451,102.496 55.418,86.966C55.418,86.966 55.418,86.966 55.418,86.966C55.417,85.944 55.281,84.891 55.005,83.91C54.742,82.977 54.045,82.487 53.069,82.443C53.068,82.443 53.067,82.443 53.065,82.443C51.807,82.383 51.181,81.863 50.825,81.417C50.657,81.208 50.525,80.977 50.433,80.729ZM77.349,204.018C79.172,204.751 80.935,205.462 82.701,206.168C83.494,206.484 84.274,206.847 85.09,207.088C86.829,207.603 88.604,207.122 89.493,205.945C85.727,203.522 81.51,204.109 77.349,204.018ZM98.799,205.232C98.438,205.861 97.761,206.279 96.992,206.279C96.992,206.279 97.053,206.121 97.145,205.869L97.678,205.241C98.054,205.244 98.427,205.245 98.799,205.232ZM40.159,204.748C39.683,205.003 39.194,205.237 38.694,205.45C39.001,205.541 39.311,205.624 39.622,205.696C39.689,205.712 39.773,205.723 39.845,205.731C39.896,205.611 39.966,205.435 40.003,205.295C40.003,205.293 40.003,205.292 40.004,205.29C40.051,205.111 40.098,204.925 40.159,204.748ZM194.161,178.529C193.969,170.637 192.425,162.775 188.67,155.44C186.462,151.125 183.599,147.355 179.407,144.754C171.91,140.103 162.754,142.032 157.809,149.314C155.054,153.37 153.804,157.947 153.386,162.761C152.744,170.162 153.877,177.349 156.377,184.314C158.376,189.881 161.173,194.984 165.751,198.892C170.064,202.573 175.008,204.234 180.657,202.957C185.715,201.812 188.883,198.352 191.073,193.876C193.396,189.13 194.125,184.041 194.161,178.529ZM40.184,187.656C40.029,187.831 39.903,187.966 39.762,188.084C39.762,188.084 39.761,188.085 39.76,188.085C34.847,192.175 29.936,196.267 25.002,200.331C25.002,200.331 25.002,200.331 25.002,200.332C24.736,200.55 24.422,200.717 24.093,200.865C24.754,201.134 25.446,201.357 26.172,201.53C26.172,201.53 26.172,201.53 26.172,201.53C30.688,202.607 34.858,201.897 38.249,198.549C38.249,198.549 38.249,198.549 38.249,198.549C41.094,195.741 41.705,191.263 40.184,187.656ZM192.078,178.547C192.041,183.721 191.383,188.504 189.202,192.961C187.296,196.854 184.598,199.929 180.197,200.925C175.231,202.048 170.895,200.544 167.103,197.307C162.808,193.641 160.213,188.833 158.338,183.61C155.94,176.931 154.845,170.039 155.462,162.941C155.849,158.485 156.982,154.239 159.532,150.485C163.831,144.155 171.791,142.481 178.309,146.524C182.17,148.92 184.781,152.415 186.815,156.389C186.815,156.39 186.815,156.39 186.815,156.39C190.417,163.425 191.889,170.97 192.078,178.54L192.078,178.547ZM146.737,184.222C146.319,182.714 145.984,181.166 145.726,179.582C145.726,179.582 145.726,179.582 145.726,179.582C144.376,171.306 145.194,163.254 148.712,155.582C151.768,148.911 156.327,143.589 163.15,140.529C163.15,140.529 163.15,140.529 163.151,140.529C165.035,139.684 167.063,139.064 169.089,138.661C169.089,138.661 169.089,138.661 169.089,138.661C170.402,138.4 171.03,137.533 171.322,136.372C171.658,135.031 171.83,133.617 171.845,132.233C171.845,132.233 171.845,132.233 171.845,132.233C171.911,126.393 171.879,120.553 171.856,114.714C171.855,114.586 171.814,114.445 171.752,114.333C166.729,105.229 161.699,96.129 156.625,87.053C156.625,87.053 156.625,87.052 156.624,87.052C156.007,85.946 155.237,84.908 154.422,83.937C154.421,83.937 154.421,83.937 154.421,83.937C153.285,82.584 151.699,82.25 149.972,82.107C149.546,82.072 149.208,82.07 148.93,82.227C148.606,82.409 148.383,82.748 148.124,83.182C148.123,83.182 148.123,83.182 148.123,83.183C137.187,101.46 126.167,119.688 115.169,137.925C120.275,138.059 125.386,138.327 130.487,138.201C136.505,138.051 140.763,134.903 143.326,129.563C144.692,126.715 145.599,123.648 146.694,120.672C147.1,119.568 147.524,119.16 147.959,118.905C148.326,118.69 148.893,118.493 150.118,118.599C150.721,118.651 151.27,118.963 151.625,119.452C151.98,119.941 152.104,120.561 151.967,121.149C150.163,128.86 148.364,136.549 146.606,144.059C146.472,144.631 146.103,145.12 145.589,145.406C145.075,145.691 144.464,145.746 143.908,145.557C142.233,144.988 140.617,144.349 138.949,143.9C138.949,143.9 138.948,143.9 138.948,143.9C138.129,143.678 137.241,143.664 136.385,143.659C130.735,143.634 125.084,143.645 119.434,143.647C119.168,144.068 118.754,144.389 118.256,144.535C117.997,144.611 117.733,144.698 117.466,144.726C117.464,144.726 117.463,144.726 117.461,144.726C116.619,144.812 115.965,144.978 115.528,145.415C115.087,145.856 114.916,146.521 114.825,147.384C114.825,147.384 114.825,147.384 114.824,147.384C114.755,148.041 114.722,148.705 114.721,149.365C114.713,155.455 114.715,161.544 114.716,167.633L133.073,158.313C133.719,157.985 134.488,158.016 135.106,158.395C135.723,158.773 136.099,159.446 136.099,160.17C136.099,161.049 136.16,161.763 136.023,162.428C135.863,163.206 134.996,164.185 134.161,164.58C127.679,167.643 121.194,170.7 114.693,173.72C114.73,182.411 114.728,191.102 114.698,199.792C116.877,200.165 119.048,200.691 121.237,200.762C124.429,200.864 127.653,200.694 130.833,200.352C134.754,199.93 137.623,197.755 139.351,194.256C140.625,191.677 141.567,188.928 142.563,186.22C142.912,185.272 143.4,184.71 143.935,184.381C144.561,183.996 145.377,183.783 146.579,184.165C146.633,184.182 146.686,184.201 146.737,184.222ZM99.403,143.633C98.25,143.62 97.1,143.607 95.952,143.657C95.952,143.657 95.951,143.657 95.951,143.657C95.623,143.671 95.3,143.674 94.983,143.663L60.758,200.413C61.057,200.439 61.355,200.458 61.653,200.466C66.391,200.589 71.136,200.798 75.871,200.682C81.99,200.53 86.352,197.422 88.958,191.973C88.958,191.973 88.958,191.973 88.958,191.973C90.318,189.129 91.243,186.074 92.306,183.093C92.639,182.157 93.133,181.615 93.663,181.311C94.029,181.101 94.475,180.941 95.042,180.958C94.999,180.845 94.965,180.727 94.941,180.605C94.663,179.168 94.761,178.443 94.989,177.943C95.242,177.385 95.729,176.839 97.052,176.209C97.052,176.209 97.052,176.209 97.052,176.209C99.44,175.071 101.821,173.922 104.218,172.807C104.196,164.788 104.209,156.768 104.194,148.749C104.194,148.749 104.194,148.749 104.194,148.749C104.193,148.192 104.128,147.625 104.013,147.08C103.88,146.449 103.733,145.958 103.427,145.597C102.927,145.009 102.094,144.829 100.836,144.613C100.227,144.509 99.709,144.144 99.403,143.633ZM22.052,199.058C23.181,197.467 24.309,195.875 25.441,194.286C27.283,191.695 29.139,189.114 30.964,186.512C31.279,186.064 31.618,185.888 32.17,185.895C34.37,185.926 36.572,185.908 38.951,185.908C38.715,186.17 38.59,186.349 38.428,186.484C33.517,190.571 28.609,194.662 23.678,198.723C23.277,199.053 22.707,199.179 22.216,199.4C22.162,199.286 22.107,199.172 22.052,199.058ZM69.571,114.62C68.377,114.648 67.18,114.645 65.954,114.639C65.95,121.108 65.941,127.576 65.967,134.045C65.971,134.753 66.081,135.476 66.258,136.163C66.646,137.669 67.516,138.194 69.385,138.618C69.921,138.74 70.373,139.063 70.663,139.503L86.484,139.503L86.445,139.459C85.378,138.245 84.389,136.947 83.49,135.603C83.489,135.603 83.489,135.603 83.489,135.602C78.826,128.625 74.19,121.627 69.571,114.62ZM18.526,80.218L18.526,89.058C18.526,96.619 18.533,104.18 18.512,111.741C18.51,112.496 18.617,112.927 19.51,112.973C20.791,113.035 22.061,113.324 23.34,113.36C25.874,113.432 28.467,113.741 30.937,113.342C37.796,112.236 42.397,108.157 44.244,101.499C46.104,94.794 44.475,88.793 39.15,84.115C36.073,81.412 32.375,80.21 28.229,80.398C26.038,80.498 23.838,80.427 21.643,80.398C20.646,80.385 19.65,80.286 18.526,80.218ZM170.716,79.269C170.994,79.917 170.681,79.958 170.204,80.013C169.207,80.129 168.198,80.252 167.236,80.521C165.575,80.984 164.9,81.951 165.307,83.609C165.659,85.044 166.217,86.465 166.904,87.777C170.493,94.631 174.152,101.45 177.789,108.279C178.386,109.402 178.992,110.518 179.656,111.754C179.866,111.375 180.004,111.15 180.121,110.912C183.149,104.768 186.209,98.639 189.176,92.466C190.033,90.685 190.769,88.815 191.3,86.912C192.309,83.3 191.268,80.847 187.286,80.262C186.636,80.167 186.578,79.85 186.771,79.252L191.03,79.252C180.011,61.251 169.075,43.391 158.099,25.462C158.099,29.842 158.08,34.067 158.102,38.291C158.151,47.629 158.211,56.968 158.29,66.306C158.306,68.171 158.297,70.05 158.526,71.895C158.939,75.226 160.44,77.847 163.918,78.799C164.994,79.094 166.141,79.18 167.261,79.252C168.417,79.327 169.579,79.269 170.716,79.269ZM63.935,80.291L63.935,110.877C65.095,110.978 66.19,111.094 67.288,111.165C71.162,111.413 75.037,111.933 78.916,111.243C83.837,110.368 87.448,107.852 89.132,102.98C89.893,100.782 90.08,98.504 90.061,96.192C90.004,89.466 86.116,83.987 79.815,81.615C74.647,79.67 69.289,80.555 63.935,80.291ZM20.597,110.978C20.616,103.672 20.609,96.364 20.609,89.058L20.609,82.444C20.948,82.463 21.282,82.476 21.616,82.481C23.851,82.51 26.093,82.581 28.324,82.479C31.91,82.316 35.113,83.342 37.775,85.68C42.449,89.787 43.869,95.057 42.236,100.942C42.236,100.942 42.236,100.942 42.236,100.942C40.622,106.76 36.598,110.319 30.605,111.285C30.605,111.285 30.605,111.285 30.605,111.285C28.262,111.664 25.803,111.346 23.4,111.278C22.463,111.251 21.531,111.086 20.597,110.978ZM66.019,82.419C70.428,82.418 74.823,81.962 79.081,83.565C79.081,83.565 79.081,83.565 79.081,83.565C84.549,85.623 87.928,90.374 87.977,96.21C87.995,98.282 87.846,100.328 87.164,102.298C87.163,102.298 87.163,102.299 87.163,102.299C85.749,106.389 82.683,108.457 78.552,109.192C74.838,109.852 71.13,109.323 67.421,109.086C66.955,109.056 66.489,109.017 66.019,108.975L66.019,82.419ZM179.604,107.255C175.977,100.445 172.329,93.646 168.749,86.811C168.14,85.647 167.643,84.386 167.33,83.112C167.33,83.112 167.33,83.112 167.33,83.112C167.302,82.996 167.288,82.831 167.283,82.741C167.386,82.689 167.619,82.576 167.795,82.527C167.795,82.527 167.795,82.527 167.796,82.527C168.654,82.288 169.556,82.186 170.445,82.083C170.446,82.083 170.446,82.083 170.447,82.083C171.64,81.943 172.354,81.354 172.67,80.7C172.884,80.256 173.102,79.545 172.63,78.447C172.301,77.681 171.549,77.185 170.716,77.185C169.624,77.185 168.507,77.245 167.397,77.173C167.396,77.173 167.396,77.173 167.395,77.173C166.414,77.11 165.41,77.047 164.468,76.79C161.909,76.089 160.897,74.089 160.594,71.639C160.594,71.639 160.594,71.639 160.594,71.638C160.375,69.872 160.389,68.073 160.373,66.288C160.295,56.952 160.235,47.616 160.185,38.28C160.176,36.472 160.174,34.663 160.175,32.842C169.215,47.609 178.238,62.346 187.312,77.168C187.312,77.168 186.771,77.168 186.771,77.168C185.867,77.168 185.067,77.751 184.789,78.611C184.38,79.877 184.668,80.761 185.156,81.358C185.495,81.771 186.032,82.185 186.986,82.323C188.154,82.495 188.971,82.794 189.343,83.463C189.752,84.2 189.62,85.183 189.293,86.352C189.293,86.352 189.293,86.352 189.293,86.353C188.795,88.138 188.103,89.891 187.299,91.563C187.298,91.563 187.298,91.563 187.298,91.564C184.775,96.814 182.184,102.032 179.604,107.255ZM210.987,78.489L211.103,78.512C212.074,78.768 213.025,79.144 213.939,79.563C213.939,79.563 213.939,79.563 213.94,79.563C217.46,81.174 221.024,82.639 224.916,83.078C224.917,83.078 224.917,83.078 224.917,83.078C229.498,83.594 233.947,83.111 238.082,80.939C238.082,80.939 238.082,80.939 238.082,80.939C244.538,77.548 247.64,71.989 248.247,64.893C248.696,59.666 247.337,54.995 243.37,51.425C241.432,49.681 239.253,48.084 236.934,46.915C236.934,46.915 236.934,46.915 236.934,46.915C232.681,44.771 228.262,42.957 223.916,40.996C223.916,40.996 223.916,40.995 223.916,40.995C221.059,39.707 218.253,38.326 215.878,36.229C215.878,36.229 215.878,36.229 215.878,36.229C213.07,33.75 211.635,30.693 212.315,26.946C213.06,22.838 217.063,19.852 221.486,19.761C226.416,19.66 230.506,21.58 233.912,25.039C237.102,28.279 238.886,32.278 239.84,36.672C240.115,37.939 240.737,38.535 241.353,38.852C241.952,39.161 242.76,39.289 243.842,38.911C244.638,38.633 245.188,37.902 245.235,37.06C245.249,36.811 245.267,36.593 245.247,36.382C245.247,36.379 245.247,36.377 245.247,36.374C244.652,30.25 244.058,24.126 243.444,18.004C243.394,17.503 243.086,16.976 242.824,16.496C242.483,15.874 241.85,15.468 241.142,15.419C240.435,15.369 239.751,15.682 239.327,16.251C238.978,16.718 238.571,17.237 238.461,17.758C238.408,18.007 238.286,18.315 238.227,18.458C238.08,18.451 237.782,18.429 237.557,18.375C237.557,18.375 237.557,18.375 237.556,18.375C236.639,18.155 235.748,17.806 234.864,17.467C231.497,16.173 228.107,15.02 224.482,14.61C215.453,13.588 207.222,18.596 204.259,27.181C204.259,27.181 204.259,27.181 204.259,27.181C202.211,33.115 202.839,38.719 207.166,43.588C207.166,43.588 207.166,43.588 207.166,43.588C209.288,45.975 211.887,47.786 214.734,49.162C214.734,49.162 214.734,49.163 214.734,49.163C218.682,51.071 222.702,52.831 226.691,54.655C226.691,54.655 226.691,54.655 226.691,54.655C229.915,56.129 233.06,57.713 235.785,60.049C241.48,64.934 239.975,74.882 232.149,77.321C232.149,77.321 232.149,77.321 232.149,77.321C226.892,78.96 222.228,77.695 218.088,74.232C218.088,74.232 218.088,74.232 218.088,74.232C214.239,71.015 211.848,66.78 210.09,62.166C209.213,59.865 208.54,57.485 207.768,55.126C207.488,54.27 206.689,53.691 205.788,53.691L204.763,53.691C204.168,53.691 203.602,53.944 203.207,54.388C202.812,54.832 202.625,55.424 202.693,56.014C203.646,64.219 204.591,72.352 205.533,80.464C205.625,81.26 206.166,81.932 206.923,82.193C208.043,82.58 208.814,82.355 209.342,82.033C209.901,81.693 210.439,81.089 210.582,79.948C210.582,79.948 210.582,79.948 210.582,79.948C210.636,79.514 210.745,79.076 210.903,78.667L210.987,78.489ZM249.375,79.191L249.219,77.036C250.111,76.906 250.817,76.67 251.313,76.192C251.798,75.726 252.046,75.052 252.186,74.193C252.29,73.551 252.341,72.894 252.341,72.243C252.341,72.242 252.341,72.242 252.341,72.242C252.352,56.561 252.355,40.881 252.335,25.201C252.335,25.201 252.335,25.201 252.335,25.201C252.334,24.352 252.234,23.485 252.047,22.657C252.047,22.657 252.047,22.657 252.047,22.657C251.92,22.092 251.727,21.644 251.378,21.346C251.009,21.031 250.504,20.898 249.893,20.837C249.891,20.836 249.889,20.836 249.886,20.836C249.624,20.809 249.365,20.765 249.069,20.724C248.039,20.58 247.273,19.7 247.273,18.66L247.273,17.775C247.273,16.624 248.206,15.692 249.356,15.692L265.767,15.692C266.654,15.692 267.444,16.253 267.735,17.091C268.086,18.099 267.959,18.881 267.673,19.432C267.358,20.039 266.754,20.717 265.33,20.846C265.33,20.846 265.33,20.846 265.33,20.846C264.594,20.912 264.02,21.043 263.632,21.419C263.235,21.804 263.075,22.393 262.97,23.153C262.87,23.876 262.815,24.611 262.814,25.341C262.804,33.486 262.805,41.632 262.805,49.776L263.299,49.148C269.285,41.514 275.292,33.896 281.233,26.228C281.233,26.228 281.233,26.228 281.233,26.228C282.057,25.165 282.782,23.966 283.273,22.719C283.273,22.719 283.274,22.719 283.274,22.719C283.465,22.235 283.559,21.815 283.361,21.49C283.136,21.119 282.655,20.96 282.068,20.857C281.802,20.81 281.533,20.786 281.233,20.747C280.194,20.613 279.416,19.728 279.416,18.681L279.416,17.779C279.416,16.629 280.349,15.696 281.499,15.696L298.882,15.696C300.032,15.696 300.965,16.629 300.965,17.779L300.965,18.692C300.965,19.8 300.098,20.714 298.991,20.772C297.139,20.869 295.45,21.417 293.894,22.373C293.894,22.373 293.894,22.373 293.894,22.373C291.103,24.089 288.839,26.403 286.779,28.897C286.779,28.897 286.779,28.897 286.779,28.897C282.19,34.45 277.65,40.045 273.105,45.634C273.341,45.653 273.543,45.698 273.729,45.762C274.335,45.972 274.942,46.44 275.85,47.691C281.768,55.837 287.682,63.987 293.616,72.122C294.234,72.969 294.934,73.762 295.648,74.532C295.649,74.532 295.649,74.533 295.649,74.533C297.274,76.287 298.019,76.689 300.304,77.119C301.072,77.264 301.694,77.826 301.916,78.575C302.287,79.828 301.964,80.786 301.375,81.383C300.997,81.767 300.381,82.176 299.272,82.162C299.272,82.162 299.272,82.162 299.272,82.162C297.255,82.136 295.237,82.161 293.219,82.146C293.218,82.146 293.218,82.146 293.217,82.146C290.498,82.124 288.153,81.02 286.391,79.079C286.391,79.079 286.391,79.079 286.39,79.079C284.169,76.632 282.009,74.108 280.042,71.453C280.042,71.453 280.042,71.453 280.042,71.453C275.593,65.444 271.248,59.358 266.871,53.295L265.358,55.143C264.934,55.664 264.509,56.185 264.085,56.706L262.826,58.263C262.817,63.222 262.825,68.183 262.879,73.142C262.886,73.755 263.035,74.382 263.219,74.972C263.638,76.312 264.493,76.756 266.239,77.118C267.206,77.319 267.899,78.17 267.899,79.158L267.899,80.003C267.899,81.153 266.966,82.086 265.816,82.086L249.366,82.086C248.215,82.086 247.283,81.153 247.283,80.003L247.283,79.197C247.283,80.347 248.215,81.28 249.366,81.28C249.366,81.28 248.237,77.446 248.237,77.446C248.237,77.446 248.381,77.352 248.381,77.352L249.506,81.14L249.515,81.131L249.433,80.003L265.816,80.003L265.816,79.158C263.079,78.591 261.886,77.694 261.23,75.592C260.987,74.812 260.806,73.978 260.796,73.167C260.74,68.084 260.734,62.999 260.743,57.916C260.744,57.598 260.977,57.236 261.194,56.968C262.884,54.869 264.594,52.787 266.301,50.702C266.507,50.451 266.728,50.214 266.974,49.93C267.189,50.205 267.344,50.392 267.484,50.586C272.222,57.134 276.908,63.719 281.716,70.213C283.642,72.812 285.758,75.283 287.933,77.679C289.302,79.186 291.122,80.046 293.234,80.063C295.257,80.078 297.278,80.053 299.299,80.079C300.057,80.089 300.082,79.718 299.919,79.167C297.073,78.63 296.144,78.133 294.121,75.949C293.352,75.119 292.599,74.263 291.933,73.351C285.998,65.214 280.083,57.063 274.164,48.916C273.133,47.494 273.139,47.496 271.405,47.962C270.309,48.256 269.209,48.53 267.922,48.861C268.097,48.547 268.14,48.434 268.212,48.346C273.859,41.415 279.478,34.461 285.173,27.57C287.379,24.9 289.814,22.436 292.802,20.599C294.658,19.458 296.673,18.808 298.882,18.692L298.882,17.779L281.499,17.779L281.499,18.681C281.832,18.724 282.131,18.753 282.427,18.804C284.997,19.255 286.166,21.066 285.212,23.484C284.649,24.912 283.823,26.287 282.88,27.504C276.936,35.176 270.927,42.797 264.938,50.434C263.6,52.139 262.259,53.841 260.921,55.544L260.722,55.462L260.722,54.925C260.723,45.063 260.719,35.2 260.73,25.338C260.731,24.514 260.794,23.685 260.907,22.868C261.27,20.241 262.533,19.006 265.143,18.771C265.917,18.701 265.977,18.378 265.767,17.775L249.356,17.775L249.356,18.66C249.626,18.698 249.862,18.739 250.101,18.764C252.29,18.983 253.597,20.059 254.08,22.199C254.3,23.175 254.417,24.197 254.418,25.198C254.438,40.88 254.435,56.561 254.424,72.243C254.424,73.006 254.364,73.776 254.242,74.528C253.794,77.279 252.311,78.692 249.519,79.098L249.375,79.191ZM45.503,81.374C45.318,81.052 45.171,80.654 45.085,80.164C44.788,78.483 44.011,77.197 42.647,77.097C42.646,77.097 42.646,77.097 42.645,77.097C42.053,77.053 41.373,77.175 40.845,77.443C40.234,77.753 39.631,78.078 39.035,78.411C41.397,79.112 43.579,80.075 45.503,81.374ZM207.602,80.224C206.66,72.112 205.716,63.978 204.763,55.774L205.788,55.774C206.57,58.164 207.254,60.576 208.143,62.908C210.029,67.857 212.623,72.379 216.751,75.83C221.465,79.773 226.783,81.176 232.769,79.31C242.211,76.368 244.013,64.361 237.141,58.467C234.266,56.003 230.959,54.315 227.557,52.76C223.582,50.942 219.575,49.189 215.64,47.287C213.04,46.03 210.661,44.384 208.723,42.204C204.942,37.95 204.439,33.045 206.228,27.861C208.867,20.215 216.207,15.77 224.248,16.68C227.696,17.07 230.915,18.181 234.118,19.411C235.087,19.783 236.066,20.16 237.071,20.401C239.108,20.89 240.064,20.222 240.5,18.188C240.553,17.933 240.825,17.726 240.996,17.497C241.126,17.734 241.346,17.963 241.371,18.211C241.985,24.331 242.579,30.454 243.173,36.576C243.184,36.691 243.162,36.809 243.155,36.944C242.417,37.202 242.059,37.073 241.876,36.23C240.837,31.446 238.87,27.104 235.396,23.577C231.574,19.696 226.975,17.564 221.443,17.678C216.02,17.79 211.179,21.537 210.265,26.574C209.445,31.092 211.114,34.802 214.499,37.791C217.032,40.027 220.012,41.52 223.059,42.895C227.378,44.844 231.77,46.644 235.996,48.775C238.152,49.862 240.174,51.353 241.976,52.974C245.429,56.081 246.562,60.165 246.172,64.715C245.628,71.064 242.889,76.06 237.113,79.095C233.357,81.067 229.312,81.477 225.15,81.008C221.48,80.594 218.127,79.188 214.807,77.669C213.784,77.2 212.719,76.784 211.633,76.498C210.283,76.142 209.458,76.62 208.959,77.917C208.741,78.482 208.59,79.088 208.515,79.689C208.442,80.272 208.209,80.433 207.602,80.224ZM123.324,79.268C126.784,79.268 130.243,79.285 133.701,79.262C136.382,79.245 138.196,78.025 138.5,75.802C138.677,74.502 138.674,73.069 138.317,71.821C137.085,67.507 135.672,63.242 134.283,58.975C134.203,58.731 133.712,58.473 133.412,58.472C126.586,58.443 119.76,58.458 112.934,58.435C112.328,58.434 112.078,58.652 111.907,59.2C111.515,60.454 111.006,61.673 110.644,62.934C109.623,66.48 108.504,70.008 107.712,73.608C107.11,76.344 108.758,78.481 111.497,79.064C112.12,79.197 112.769,79.256 113.407,79.26C116.713,79.278 120.019,79.269 123.324,79.268ZM64.034,18.86C64.011,19.294 63.992,19.477 63.992,19.66C63.991,38.769 63.996,57.878 63.975,76.987C63.974,77.657 64.197,77.908 64.821,77.985C67.643,78.331 70.454,78.845 73.286,79.014C75.619,79.153 78.03,79.182 80.31,78.748C85.789,77.706 89.442,74.163 91.963,69.359C94.417,64.681 95.352,59.623 95.475,54.395C95.626,47.909 95.18,41.486 93.072,35.283C91.374,30.286 88.637,26.023 84.158,23.054C80.853,20.862 77.193,19.633 73.247,19.343C70.206,19.119 67.154,19.018 64.034,18.86ZM55.44,51.384C55.321,51.921 55.011,52.508 54.628,52.903C54.624,52.907 54.621,52.911 54.617,52.915C54.262,53.276 52.836,53.578 52.836,53.578C52.836,53.578 52.927,53.575 52.97,53.572C52.146,53.654 51.509,53.808 51.093,54.232C50.679,54.654 50.542,55.291 50.481,56.112C50.453,56.49 50.453,56.87 50.452,57.248L50.451,78.864C50.638,78.366 51.01,77.957 51.494,77.723C52.489,77.243 53.484,76.993 54.228,76.409C54.228,76.409 54.229,76.408 54.23,76.408C55.291,75.577 55.363,74.26 55.437,72.982C55.448,72.776 55.44,72.571 55.44,72.366L55.44,51.384ZM113.665,60.52C119.976,60.539 126.29,60.528 132.606,60.552C133.888,64.484 135.178,68.417 136.314,72.393C136.314,72.393 136.314,72.393 136.314,72.393C136.594,73.373 136.575,74.499 136.436,75.519C136.27,76.726 135.142,77.17 133.688,77.179C133.688,77.179 133.688,77.179 133.688,77.179C130.234,77.202 126.779,77.184 123.324,77.184C123.324,77.184 123.324,77.184 123.324,77.184C120.023,77.185 116.722,77.195 113.421,77.177C112.923,77.174 112.418,77.13 111.932,77.026C111.932,77.026 111.931,77.026 111.93,77.026C110.409,76.702 109.412,75.575 109.746,74.055C110.53,70.499 111.637,67.014 112.646,63.51C112.646,63.51 112.646,63.509 112.646,63.509C112.936,62.499 113.323,61.516 113.665,60.52ZM66.074,48.324L66.076,21.043C68.439,21.151 70.769,21.25 73.094,21.421C76.679,21.684 80.004,22.799 83.006,24.79C83.006,24.79 83.006,24.79 83.007,24.791C87.088,27.495 89.552,31.401 91.1,35.954C93.128,41.922 93.538,48.105 93.392,54.347C93.277,59.251 92.421,64.002 90.119,68.391C87.902,72.614 84.737,75.785 79.921,76.701C79.921,76.701 79.92,76.701 79.92,76.701C77.807,77.103 75.572,77.063 73.41,76.935C70.951,76.788 68.508,76.374 66.059,76.044L66.07,62.657C66.071,57.879 66.073,53.102 66.074,48.324ZM123.235,25.723C119.736,36.176 116.201,46.735 112.654,57.331L133.769,57.331C130.221,46.684 126.698,36.113 123.235,25.723ZM123.231,32.299C125.756,39.877 128.31,47.54 130.879,55.247C130.879,55.247 115.548,55.247 115.548,55.247C118.119,47.566 120.683,39.908 123.231,32.299L123.231,32.299ZM181.167,6.969C181.82,6.63 182.547,5.977 182.304,4.791L182.267,4.609C182.08,3.651 181.236,2.929 180.223,2.929C178.977,2.929 177.728,2.89 176.485,2.955C176.483,2.956 176.482,2.956 176.481,2.956C175.579,3.005 174.428,3.603 173.897,4.316C173.896,4.317 173.896,4.318 173.895,4.318C172.466,6.243 171.089,8.205 169.703,10.16C169.701,10.162 169.7,10.164 169.699,10.166C169.539,10.393 169.429,10.661 169.174,11.219C168.84,11.953 168.959,12.813 169.479,13.428C169.999,14.043 170.827,14.304 171.606,14.097C172.055,13.977 172.449,13.939 172.753,13.842C173.142,13.72 173.471,13.543 173.752,13.314C176.387,11.171 178.987,8.986 181.597,6.813L181.167,6.969ZM180.264,5.212C177.66,7.38 175.066,9.56 172.437,11.699C172.148,11.934 171.66,11.926 171.07,12.083C171.241,11.708 171.295,11.518 171.402,11.365C172.78,9.423 174.147,7.473 175.568,5.56C175.777,5.279 176.238,5.055 176.594,5.036C177.8,4.973 179.014,5.012 180.223,5.012L180.264,5.212Z" style="fill:rgb(7,11,20);"/>
    </g>
</svg>
