<?xml version="1.0" encoding="UTF-8" standalone="no"?>
<!DOCTYPE svg PUBLIC "-//W3C//DTD SVG 1.1//EN" "http://www.w3.org/Graphics/SVG/1.1/DTD/svg11.dtd">
<svg width="100%" height="100%" viewBox="0 0 470 470" version="1.1" xmlns="http://www.w3.org/2000/svg" xmlns:xlink="http://www.w3.org/1999/xlink" xml:space="preserve" xmlns:serif="http://www.serif.com/" style="fill-rule:evenodd;clip-rule:evenodd;stroke-linejoin:round;stroke-miterlimit:2;">
    <g transform="matrix(1.504,0,0,1.504,9.4,-0.428186)">
        <path d="M140.008,80.44L138.759,80.44C133.581,80.44 128.402,80.529 123.228,80.417C116.54,80.273 111.883,83.276 109.013,89.206C108.095,91.103 107.284,93.051 106.401,95.027L105.433,95.027C106.605,90.111 107.766,85.243 108.951,80.273L97.156,80.273C97.138,79.925 97.124,79.645 97.108,79.346C97.873,79.23 98.57,79.162 99.25,79.013C102.034,78.404 103.697,76.475 104.699,74.002C106.57,69.384 108.409,64.746 110.063,60.046C113.616,49.953 117.071,39.824 120.501,29.686C121.403,27.022 122.129,24.285 121.907,21.413C121.842,20.564 121.705,19.721 121.603,18.89C123.349,18.098 125.093,17.307 126.921,16.476C127.293,17.582 127.696,18.756 128.083,19.936C133.69,37.015 139.281,54.1 144.926,71.166C145.488,72.866 146.341,74.476 147.141,76.086C147.418,76.644 147.885,77.146 148.364,77.559C150.273,79.205 151.151,79.344 153.551,77.903C155.052,77.003 155.886,75.548 156.085,73.824C156.323,71.761 156.536,69.685 156.572,67.611C156.671,61.794 156.666,55.974 156.712,50.156C156.767,42.959 156.868,35.764 156.866,28.568C156.865,27.056 156.666,25.5 156.271,24.042C155.392,20.812 153.199,19.078 149.867,18.778C149.204,18.717 148.977,18.497 149.219,17.728L150.142,17.728C153.451,17.728 156.76,17.752 160.068,17.709C160.779,17.7 161.147,17.94 161.51,18.536C172.211,36.097 182.933,53.645 193.654,71.195C193.822,71.469 194.009,71.733 194.39,71.966C194.39,71.064 194.388,70.163 194.391,69.261C194.412,61.911 194.431,54.56 194.458,47.209C194.481,40.686 194.576,34.162 194.498,27.639C194.477,25.93 194.137,24.156 193.576,22.539C192.723,20.084 190.648,19.057 188.162,18.784C187.859,18.751 187.528,18.794 187.258,18.683C187.1,18.619 186.967,18.323 186.959,18.127C186.955,18 187.185,17.84 187.341,17.744C187.43,17.688 187.579,17.728 187.702,17.728C192.542,17.728 197.382,17.728 202.222,17.731C202.401,17.731 202.58,17.768 202.776,17.789C202.909,18.259 203.007,18.63 202.341,18.748C197.898,19.531 196.467,21.096 196.187,25.598C196.052,27.766 196.019,29.942 196.002,32.115C195.916,42.711 195.849,53.307 195.779,63.902C195.761,66.533 195.708,69.166 195.762,71.795C195.805,73.916 196.538,75.865 197.641,77.803C196.54,78.245 195.477,78.671 194.415,79.097L194.421,79.238L202.418,79.238L202.418,80.05L202.263,80.165C198.954,80.616 196.652,82.575 195.033,85.305C192.819,89.038 190.71,92.838 188.701,96.686C185.954,101.945 183.332,107.27 180.688,112.582C180.44,113.079 180.292,113.682 180.29,114.237C180.262,120.179 180.258,126.122 180.285,132.065C180.29,133.315 180.365,134.579 180.556,135.814C180.948,138.355 181.602,140.253 184.926,140.658C184.94,140.916 184.954,141.184 184.973,141.537L180.577,141.537C182.074,142.194 183.356,142.665 184.552,143.296C191.135,146.77 195.548,152.202 197.877,159.144C202.286,172.292 200.836,184.759 192.51,196.068C189.098,200.701 184.497,203.869 178.712,204.77C170.448,206.057 163.18,203.73 157.12,197.965C151.77,192.875 148.955,186.436 147.782,179.247C146.5,171.386 147.264,163.737 150.605,156.45C153.447,150.248 157.659,145.275 164.003,142.43C165.745,141.649 167.621,141.077 169.495,140.704C171.723,140.262 172.848,138.849 173.343,136.879C173.718,135.382 173.911,133.802 173.928,132.256C173.994,126.406 173.963,120.554 173.939,114.704C173.937,114.242 173.799,113.732 173.576,113.327C168.551,104.22 163.519,95.116 158.444,86.037C157.762,84.816 156.917,83.668 156.016,82.596C154.502,80.795 152.444,80.221 150.143,80.031C148.298,79.879 147.298,80.503 146.336,82.113C135.023,101.02 123.62,119.874 112.242,138.742C112.091,138.994 111.964,139.26 111.758,139.646C112.895,139.778 113.914,139.976 114.937,140.003C120.137,140.136 125.343,140.412 130.539,140.283C137.403,140.112 142.281,136.555 145.204,130.464C146.599,127.558 147.531,124.429 148.649,121.391C148.94,120.599 148.898,120.584 149.938,120.675C148.134,128.385 146.336,136.075 144.578,143.584C142.861,143.001 141.202,142.349 139.491,141.888C138.502,141.621 137.43,141.581 136.395,141.576C130.391,141.549 124.386,141.563 118.382,141.564C118.202,141.564 118.022,141.584 117.787,141.599C117.748,141.913 117.712,142.205 117.672,142.535C117.532,142.576 117.393,142.638 117.249,142.653C114.421,142.942 113.057,144.297 112.753,147.164C112.675,147.892 112.639,148.63 112.638,149.362C112.629,156.132 112.632,162.902 112.632,169.673L112.632,171.027C119.834,167.371 126.843,163.812 134.016,160.17C134.016,160.885 134.094,161.466 133.983,162.007C133.927,162.278 133.562,162.559 133.27,162.696C126.746,165.78 120.218,168.857 113.674,171.897C112.914,172.25 112.606,172.644 112.609,173.525C112.648,182.471 112.644,191.416 112.613,200.361C112.61,201.19 112.851,201.609 113.665,201.734C116.167,202.115 118.659,202.763 121.17,202.844C124.459,202.949 127.78,202.776 131.056,202.424C135.728,201.921 139.159,199.348 141.219,195.179C142.526,192.533 143.497,189.716 144.519,186.939C144.802,186.167 145.113,185.885 145.949,186.15C144.265,192.489 142.579,198.832 140.883,205.217C140.718,205.203 140.6,205.214 140.497,205.18C137.639,204.238 134.685,204.026 131.705,204.024C126.558,204.019 121.412,204.003 116.266,204.035C114.963,204.043 113.654,204.165 112.36,204.321C110.127,204.591 108.959,205.686 108.533,207.902C108.373,208.738 108.298,209.603 108.297,210.455C108.284,226.845 108.28,243.233 108.307,259.622C108.308,260.648 108.459,261.707 108.747,262.69C109.31,264.609 110.628,265.823 112.634,266.146C113.281,266.25 113.506,266.47 113.264,267.168L96.848,267.168C96.827,266.9 96.806,266.638 96.789,266.409L96.975,266.261C100.414,265.882 101.55,263.643 101.869,260.602C101.911,260.207 101.902,259.807 101.902,259.409C101.904,243.173 101.91,226.937 101.889,210.701C101.888,209.701 101.761,208.681 101.544,207.705C101.095,205.684 99.784,204.548 97.716,204.307C97.474,204.279 97.232,204.235 96.992,204.195L96.856,204.125C96.839,204.019 96.803,203.875 96.795,203.73C96.787,203.58 96.807,203.428 96.821,203.152C97.496,203.152 98.161,203.174 98.823,203.147C99.736,203.11 100.65,203.068 101.558,202.975C103.957,202.727 105.374,201.33 105.953,199.052C106.14,198.317 106.27,197.545 106.273,196.789C106.296,189.988 106.287,183.188 106.285,176.387C106.285,176.155 106.257,175.921 106.233,175.534C103.089,177.123 100.05,178.66 96.986,180.21C96.692,178.688 96.692,178.688 97.948,178.09C100.488,176.88 103.02,175.656 105.573,174.474C106.129,174.216 106.303,173.891 106.302,173.283C106.279,165.104 106.292,156.924 106.277,148.746C106.276,148.046 106.195,147.335 106.052,146.65C105.506,144.063 104.352,143.102 101.187,142.56C101.132,142.268 101.07,141.952 100.996,141.562C99.277,141.562 97.566,141.501 95.86,141.576C92.647,141.715 90.076,140.438 88.011,138.085C87.004,136.939 86.07,135.714 85.221,134.445C80.527,127.421 75.861,120.377 71.212,113.323C70.826,112.74 70.428,112.513 69.729,112.533C67.834,112.583 65.935,112.55 63.923,112.55C63.903,112.917 63.871,113.238 63.871,113.561C63.868,120.392 63.856,127.223 63.884,134.055C63.888,134.933 64.021,135.831 64.241,136.683C64.839,139.007 66.038,139.994 68.924,140.65C68.962,140.911 69.003,141.201 69.056,141.587L93.803,141.587C81.598,161.823 69.506,181.873 57.314,202.091C58.834,202.259 60.214,202.512 61.599,202.548C66.372,202.673 71.152,202.881 75.923,202.764C82.89,202.591 87.871,199.076 90.837,192.872C92.229,189.963 93.181,186.841 94.268,183.793C94.507,183.123 94.761,182.869 95.528,183.178C95.11,184.99 94.699,186.799 94.276,188.606C93.026,193.936 91.811,199.273 90.495,204.585C90.125,206.077 90.512,207.443 90.763,208.841C91.916,215.221 93.109,221.596 94.283,227.973C94.32,228.177 94.316,228.388 94.337,228.655L93.426,228.655C92.444,225.743 91.566,222.848 90.491,220.026C89.057,216.259 87.152,212.752 84.382,209.751C78.422,203.292 70.119,203.915 64.344,208.116C60.334,211.033 57.71,215 56.237,219.649C52.581,231.194 53.59,242.334 59.822,252.796C62.905,257.971 67.389,261.478 73.43,262.735C81.467,264.408 88.335,261.159 92.11,253.822C92.876,252.333 93.461,250.751 94.236,248.97C94.406,249.271 94.688,249.54 94.641,249.722C92.414,258.215 88.272,265.268 79.259,267.804C72.517,269.7 66.2,267.955 60.61,263.844C55.108,259.798 51.794,254.2 50.026,247.71C47.084,236.911 47.833,226.451 53.629,216.671C57.014,210.962 61.729,206.734 68.2,204.723C68.893,204.508 69.606,204.354 70.309,204.073L48.733,204.073C61.076,183.614 73.31,163.338 85.625,142.925C85.161,142.905 84.844,142.879 84.527,142.879C79.227,142.876 73.927,142.937 68.629,142.861C62.23,142.77 57.67,145.616 54.827,151.269C53.924,153.069 53.159,154.943 52.398,156.809C52.133,157.458 51.808,157.676 51.068,157.405C52.308,152.153 53.547,146.902 54.809,141.558L52.48,141.558L52.48,140.644C52.903,140.555 53.325,140.499 53.727,140.378C56.148,139.647 57.048,137.755 57.401,135.477C57.498,134.845 57.518,134.197 57.518,133.555C57.524,118.024 57.534,102.493 57.502,86.962C57.5,85.753 57.337,84.507 57.011,83.345C56.483,81.475 55.119,80.451 53.164,80.362C52.395,80.325 52.29,79.998 52.399,79.6C53.541,79.049 54.661,78.718 55.514,78.048C57.074,76.827 57.408,74.979 57.517,73.1C57.531,72.855 57.523,72.61 57.523,72.366C57.523,56.742 57.527,41.119 57.51,25.496C57.509,24.524 57.407,23.535 57.212,22.583C56.759,20.386 55.407,19.185 53.172,18.965C52.496,18.898 52.302,18.653 52.54,17.912L53.567,17.912C59.939,17.912 66.31,17.927 72.683,17.907C79.826,17.886 86.099,20.279 91.407,24.973C99.523,32.151 103.068,41.229 102.136,52.043C101.709,57.003 100.528,61.759 98.24,66.195C94.64,73.178 89.33,78.097 81.217,79.891C81.83,80.102 82.232,80.258 82.644,80.378C86.699,81.548 90.293,83.459 93.039,86.763C98.21,92.982 98.425,105.565 87.331,110.53C84.237,111.915 80.986,112.528 77.611,112.549C76.477,112.555 75.344,112.535 74.21,112.562C73.978,112.567 73.748,112.724 73.517,112.811C73.743,112.96 73.951,113.199 74.196,113.245C75.399,113.469 76.607,113.663 77.82,113.827C78.466,113.915 78.904,114.18 79.288,114.747C83.98,121.662 88.699,128.559 93.425,135.451C93.838,136.055 94.327,136.611 94.805,137.168C96.496,139.14 98.449,140.636 101.256,140.574C101.305,140.914 101.347,141.203 101.387,141.489C102.926,141.814 103.025,141.775 103.767,140.545C115.641,120.868 127.516,101.191 139.389,81.513C139.562,81.225 139.725,80.932 140.008,80.44ZM6.544,179.705C7.401,179.437 7.676,179.761 7.866,180.515C9.24,185.953 11.232,191.131 14.634,195.662C17.48,199.454 20.967,202.432 25.689,203.557C30.939,204.809 35.771,203.923 39.713,200.032C44.181,195.621 44.133,187.809 39.775,183.301C37.012,180.444 33.568,178.665 30.029,177.033C25.948,175.152 21.816,173.377 17.768,171.427C14.945,170.066 12.317,168.342 10.271,165.913C6.293,161.188 6.174,155.943 8.471,150.501C10.122,146.594 12.971,143.772 16.832,141.989C17.015,141.904 17.195,141.814 17.351,141.588L7.219,141.588C6.996,140.968 7.021,140.598 7.729,140.501C9.94,140.199 11.208,138.798 11.787,136.763C12.06,135.805 12.189,134.774 12.191,133.776C12.215,118.062 12.221,102.347 12.181,86.633C12.179,85.4 11.939,84.13 11.582,82.947C11.142,81.497 10.024,80.59 8.514,80.363C7.281,80.177 6.023,80.137 4.773,80.083C4.222,80.059 3.978,79.915 4.179,79.291L16.585,79.291L16.788,79.033C16.671,79.017 16.542,79.029 16.439,78.983C10.678,76.48 6.624,72.164 4.099,66.561C-1.921,53.2 -1.502,40.14 6.632,27.671C8.951,24.115 12.009,21.247 15.659,19.044C21.846,15.31 28.283,15.261 34.886,17.764C36.172,18.252 37.441,18.787 38.736,19.251C40.674,19.946 42.469,19.695 44.06,18.326C44.174,18.228 44.308,18.153 44.435,18.072C44.456,18.058 44.493,18.068 44.642,18.059C45.811,25.674 46.984,33.302 48.162,40.981L47.045,40.981C46.394,38.763 45.826,36.545 45.091,34.385C43.611,30.028 41.566,25.953 38.32,22.627C33.688,17.88 28.174,15.854 21.633,17.88C17.547,19.146 14.572,21.969 12.209,25.439C8.353,31.1 6.703,37.459 6.496,44.233C6.275,51.487 7.286,58.531 10.432,65.142C12.832,70.186 16.217,74.394 21.406,76.808C25.645,78.778 30.033,79.211 34.36,77.146C39.535,74.675 41.927,70.255 42.281,64.716C42.464,61.823 42.401,58.892 42.166,56.001C41.918,52.946 40.353,51.663 37.286,51.504C36.864,51.482 36.441,51.464 35.973,51.441L35.973,50.559C36.311,50.542 36.611,50.513 36.91,50.513C42.086,50.51 47.264,50.511 52.441,50.512C52.654,50.512 52.892,50.467 53.076,50.543C53.227,50.607 53.403,50.815 53.41,50.965C53.417,51.128 53.262,51.32 53.132,51.454C53.066,51.521 52.898,51.485 52.776,51.497C49.944,51.778 48.612,53.131 48.403,55.959C48.372,56.387 48.37,56.817 48.368,57.246C48.367,64.658 48.367,72.072 48.367,79.484L48.367,80.467C47.573,80.806 47.271,80.571 47.136,79.801C46.647,77.032 45.047,75.184 42.8,75.019C41.846,74.948 40.753,75.153 39.902,75.585C37.653,76.727 35.502,78.062 33.406,79.266C34.993,79.619 36.726,79.901 38.398,80.394C43.148,81.797 47.12,84.334 49.483,88.831C53.134,95.783 52.355,105.559 42.683,111.05C38.263,113.56 33.454,114.566 28.419,114.622C25.51,114.653 22.599,114.627 19.689,114.627L18.584,114.627C18.561,115.013 18.528,115.335 18.528,115.659C18.525,121.509 18.497,127.36 18.547,133.21C18.558,134.482 18.707,135.789 19.043,137.012C19.648,139.219 21.54,140.564 23.639,140.514C27.534,140.419 31.189,141.529 34.779,142.912C36.119,143.429 37.466,143.954 38.851,144.312C40.844,144.828 41.767,144.176 42.202,142.165C42.294,141.743 42.279,141.178 43.062,141.493C43.69,147.949 44.32,154.425 44.956,160.967C44.547,160.985 44.252,160.998 43.867,161.016C43.667,160.234 43.485,159.471 43.278,158.716C41.578,152.524 38.405,147.364 32.729,144.062C29.102,141.951 25.186,140.989 20.998,141.906C16.757,142.835 13.554,145.191 12.273,149.437C10.956,153.795 12.233,157.657 15.372,160.894C17.78,163.376 20.782,164.98 23.883,166.392C28.252,168.382 32.67,170.263 37.025,172.281C39.447,173.405 41.662,174.89 43.613,176.742C46.655,179.629 48.09,183.182 47.994,187.351C47.909,191.031 47.077,194.514 44.989,197.603C41.98,202.056 37.65,204.296 32.416,204.973C32.212,205 32.006,205.014 31.761,205.191C32.658,205.526 33.549,205.881 34.454,206.191C36.012,206.729 37.553,207.355 39.152,207.726C40.774,208.102 41.597,207.45 42.02,205.816C42.058,205.668 42.068,205.502 42.143,205.376C42.277,205.152 42.452,204.953 42.609,204.743C42.746,204.98 42.97,205.205 43.002,205.455C43.152,206.669 43.249,207.891 43.367,209.11C43.825,213.862 44.285,218.614 44.739,223.367C44.765,223.635 44.742,223.907 44.742,224.238L43.92,224.238C43.056,221.831 42.401,219.393 41.334,217.151C38.404,210.994 33.795,206.694 26.954,205.277C22.238,204.299 17.906,205.191 14.471,208.811C10.808,212.67 10.723,218.65 14.167,223.022C16.225,225.637 18.935,227.429 21.888,228.815C26.064,230.777 30.329,232.552 34.535,234.454C37.44,235.766 40.229,237.289 42.69,239.357C46.666,242.697 48.266,246.982 47.814,252.089C47.405,256.703 45.805,260.783 42.294,263.943C38.378,267.466 33.672,268.635 28.529,268.448C24.565,268.304 20.923,267.006 17.363,265.392C16.25,264.887 15.136,264.37 13.982,263.974C11.876,263.251 10.884,263.819 10.329,265.959C10.236,266.314 10.221,266.692 10.099,267.033C10.022,267.25 9.811,267.42 9.661,267.611C9.489,267.411 9.195,267.227 9.165,267.008C8.934,265.342 8.752,263.668 8.559,261.996C7.852,255.854 7.146,249.712 6.44,243.57C6.423,243.424 6.411,243.277 6.396,243.133C7.282,242.77 7.578,243.15 7.781,243.964C9.186,249.593 11.297,254.913 14.912,259.528C17.781,263.191 21.287,265.999 25.932,266.999C30.77,268.042 35.254,267.22 39.091,263.903C43.565,260.035 44.988,251.111 38.672,245.672C36.064,243.427 33.077,241.84 29.984,240.419C25.873,238.529 21.709,236.749 17.649,234.756C15.796,233.846 14.03,232.679 12.407,231.397C7.152,227.247 5.497,221.205 7.9,214.949C10.281,208.75 14.768,205.058 21.383,204.04C21.493,204.023 21.6,203.974 21.957,203.86C21.454,203.673 21.157,203.577 20.87,203.455C19.129,202.708 17.392,201.946 15.645,201.211C14.998,200.938 14.341,200.678 13.666,200.49C12.031,200.034 11.087,200.546 10.568,202.173C10.365,202.81 10.26,203.478 10.1,204.182C9.586,204.381 9.332,204.262 9.257,203.612C8.366,195.828 7.452,188.048 6.546,180.267C6.525,180.091 6.544,179.91 6.544,179.705ZM77.349,204.018C79.172,204.751 80.935,205.462 82.701,206.168C83.494,206.484 84.274,206.847 85.09,207.088C86.829,207.603 88.604,207.122 89.493,205.945C85.727,203.522 81.51,204.109 77.349,204.018ZM194.161,178.529C193.969,170.637 192.425,162.775 188.67,155.44C186.462,151.125 183.599,147.355 179.407,144.754C171.91,140.103 162.754,142.032 157.809,149.314C155.054,153.37 153.804,157.947 153.386,162.761C152.744,170.162 153.877,177.349 156.377,184.314C158.376,189.881 161.173,194.984 165.751,198.892C170.064,202.573 175.008,204.234 180.657,202.957C185.715,201.812 188.883,198.352 191.073,193.876C193.396,189.13 194.125,184.041 194.161,178.529ZM22.052,199.058C23.181,197.467 24.309,195.875 25.441,194.286C27.283,191.695 29.139,189.114 30.964,186.512C31.279,186.064 31.618,185.888 32.17,185.895C34.37,185.926 36.572,185.908 38.951,185.908C38.715,186.17 38.59,186.349 38.428,186.484C33.517,190.571 28.609,194.662 23.678,198.723C23.277,199.053 22.707,199.179 22.216,199.4C22.162,199.286 22.107,199.172 22.052,199.058ZM18.526,80.218L18.526,89.058C18.526,96.619 18.533,104.18 18.512,111.741C18.51,112.496 18.617,112.927 19.51,112.973C20.791,113.035 22.061,113.324 23.34,113.36C25.874,113.432 28.467,113.741 30.937,113.342C37.796,112.236 42.397,108.157 44.244,101.499C46.104,94.794 44.475,88.793 39.15,84.115C36.073,81.412 32.375,80.21 28.229,80.398C26.038,80.498 23.838,80.427 21.643,80.398C20.646,80.385 19.65,80.286 18.526,80.218ZM170.716,79.269C170.994,79.917 170.681,79.958 170.204,80.013C169.207,80.129 168.198,80.252 167.236,80.521C165.575,80.984 164.9,81.951 165.307,83.609C165.659,85.044 166.217,86.465 166.904,87.777C170.493,94.631 174.152,101.45 177.789,108.279C178.386,109.402 178.992,110.518 179.656,111.754C179.866,111.375 180.004,111.15 180.121,110.912C183.149,104.768 186.209,98.639 189.176,92.466C190.033,90.685 190.769,88.815 191.3,86.912C192.309,83.3 191.268,80.847 187.286,80.262C186.636,80.167 186.578,79.85 186.771,79.252L191.03,79.252C180.011,61.251 169.075,43.391 158.099,25.462C158.099,29.842 158.08,34.067 158.102,38.291C158.151,47.629 158.211,56.968 158.29,66.306C158.306,68.171 158.297,70.05 158.526,71.895C158.939,75.226 160.44,77.847 163.918,78.799C164.994,79.094 166.141,79.18 167.261,79.252C168.417,79.327 169.579,79.269 170.716,79.269ZM63.935,80.291L63.935,110.877C65.095,110.978 66.19,111.094 67.288,111.165C71.162,111.413 75.037,111.933 78.916,111.243C83.837,110.368 87.448,107.852 89.132,102.98C89.893,100.782 90.08,98.504 90.061,96.192C90.004,89.466 86.116,83.987 79.815,81.615C74.647,79.67 69.289,80.555 63.935,80.291ZM207.602,80.224C206.66,72.112 205.716,63.978 204.763,55.774L205.788,55.774C206.57,58.164 207.254,60.576 208.143,62.908C210.029,67.857 212.623,72.379 216.751,75.83C221.465,79.773 226.783,81.176 232.769,79.31C242.211,76.368 244.013,64.361 237.141,58.467C234.266,56.003 230.959,54.315 227.557,52.76C223.582,50.942 219.575,49.189 215.64,47.287C213.04,46.03 210.661,44.384 208.723,42.204C204.942,37.95 204.439,33.045 206.228,27.861C208.867,20.215 216.207,15.77 224.248,16.68C227.696,17.07 230.915,18.181 234.118,19.411C235.087,19.783 236.066,20.16 237.071,20.401C239.108,20.89 240.064,20.222 240.5,18.188C240.553,17.933 240.825,17.726 240.996,17.497C241.126,17.734 241.346,17.963 241.371,18.211C241.985,24.331 242.579,30.454 243.173,36.576C243.184,36.691 243.162,36.809 243.155,36.944C242.417,37.202 242.059,37.073 241.876,36.23C240.837,31.446 238.87,27.104 235.396,23.577C231.574,19.696 226.975,17.564 221.443,17.678C216.02,17.79 211.179,21.537 210.265,26.574C209.445,31.092 211.114,34.802 214.499,37.791C217.032,40.027 220.012,41.52 223.059,42.895C227.378,44.844 231.77,46.644 235.996,48.775C238.152,49.862 240.174,51.353 241.976,52.974C245.429,56.081 246.562,60.165 246.172,64.715C245.628,71.064 242.889,76.06 237.113,79.095C233.357,81.067 229.312,81.477 225.15,81.008C221.48,80.594 218.127,79.188 214.807,77.669C213.784,77.2 212.719,76.784 211.633,76.498C210.283,76.142 209.458,76.62 208.959,77.917C208.741,78.482 208.59,79.088 208.515,79.689C208.442,80.272 208.209,80.433 207.602,80.224ZM260.921,55.544C262.259,53.841 263.6,52.139 264.938,50.434C270.927,42.797 276.936,35.176 282.88,27.504C283.823,26.287 284.649,24.912 285.212,23.484C286.166,21.066 284.997,19.255 282.427,18.804C282.131,18.753 281.832,18.724 281.499,18.681L281.499,17.779L298.882,17.779L298.882,18.692C296.673,18.808 294.658,19.458 292.802,20.599C289.814,22.436 287.379,24.9 285.173,27.57C279.478,34.461 273.859,41.415 268.212,48.346C268.14,48.434 268.097,48.547 267.922,48.861C269.209,48.53 270.309,48.256 271.405,47.962C273.139,47.496 273.133,47.494 274.164,48.916C280.083,57.063 285.998,65.214 291.933,73.351C292.599,74.263 293.352,75.119 294.121,75.949C296.144,78.133 297.073,78.63 299.919,79.167C300.082,79.718 300.057,80.089 299.299,80.079C297.278,80.053 295.257,80.078 293.234,80.063C291.122,80.046 289.302,79.186 287.933,77.679C285.758,75.283 283.642,72.812 281.716,70.213C276.908,63.719 272.222,57.134 267.484,50.586C267.344,50.392 267.189,50.205 266.974,49.93C266.728,50.214 266.507,50.451 266.301,50.702C264.594,52.787 262.884,54.869 261.194,56.968C260.977,57.236 260.744,57.598 260.743,57.916C260.734,62.999 260.74,68.084 260.796,73.167C260.806,73.978 260.987,74.812 261.23,75.592C261.886,77.694 263.079,78.591 265.816,79.158L265.816,80.003L249.366,80.003L249.366,79.197L249.519,79.098C252.311,78.692 253.794,77.279 254.242,74.528C254.364,73.776 254.424,73.006 254.424,72.243C254.435,56.561 254.438,40.88 254.418,25.198C254.417,24.197 254.3,23.175 254.08,22.199C253.597,20.059 252.29,18.983 250.101,18.764C249.862,18.739 249.626,18.698 249.356,18.66L249.356,17.775L265.767,17.775C265.977,18.378 265.917,18.701 265.143,18.771C262.533,19.006 261.27,20.241 260.907,22.868C260.794,23.685 260.731,24.514 260.73,25.338C260.719,35.2 260.723,45.063 260.722,54.925L260.722,55.462L260.921,55.544ZM123.324,79.268C126.784,79.268 130.243,79.285 133.701,79.262C136.382,79.245 138.196,78.025 138.5,75.802C138.677,74.502 138.674,73.069 138.317,71.821C137.085,67.507 135.672,63.242 134.283,58.975C134.203,58.731 133.712,58.473 133.412,58.472C126.586,58.443 119.76,58.458 112.934,58.435C112.328,58.434 112.078,58.652 111.907,59.2C111.515,60.454 111.006,61.673 110.644,62.934C109.623,66.48 108.504,70.008 107.712,73.608C107.11,76.344 108.758,78.481 111.497,79.064C112.12,79.197 112.769,79.256 113.407,79.26C116.713,79.278 120.019,79.269 123.324,79.268ZM64.034,18.86C64.011,19.294 63.992,19.477 63.992,19.66C63.991,38.769 63.996,57.878 63.975,76.987C63.974,77.657 64.197,77.908 64.821,77.985C67.643,78.331 70.454,78.845 73.286,79.014C75.619,79.153 78.03,79.182 80.31,78.748C85.789,77.706 89.442,74.163 91.963,69.359C94.417,64.681 95.352,59.623 95.475,54.395C95.626,47.909 95.18,41.486 93.072,35.283C91.374,30.286 88.637,26.023 84.158,23.054C80.853,20.862 77.193,19.633 73.247,19.343C70.206,19.119 67.154,19.018 64.034,18.86ZM123.235,25.723C119.736,36.176 116.201,46.735 112.654,57.331L133.769,57.331C130.221,46.684 126.698,36.113 123.235,25.723ZM180.264,5.212C177.66,7.38 175.066,9.56 172.437,11.699C172.148,11.934 171.66,11.926 171.07,12.083C171.241,11.708 171.295,11.518 171.402,11.365C172.78,9.423 174.147,7.473 175.568,5.56C175.777,5.279 176.238,5.055 176.594,5.036C177.8,4.973 179.014,5.012 180.223,5.012L180.264,5.212Z" style="fill:rgb(7,11,20);fill-rule:nonzero;"/>
    </g>
</svg>
