<?xml version="1.0" encoding="UTF-8" standalone="no"?>
<!DOCTYPE svg PUBLIC "-//W3C//DTD SVG 1.1//EN" "http://www.w3.org/Graphics/SVG/1.1/DTD/svg11.dtd">
<svg width="100%" height="100%" viewBox="0 0 197 128" version="1.1" xmlns="http://www.w3.org/2000/svg" xmlns:xlink="http://www.w3.org/1999/xlink" xml:space="preserve" xmlns:serif="http://www.serif.com/" style="fill-rule:evenodd;clip-rule:evenodd;stroke-linejoin:round;stroke-miterlimit:2;">
    <g>
        <g transform="matrix(-4.16667,0,0,4.16667,3027.2,-279.792)">
            <rect x="724.782" y="68.861" width="1.747" height="26.212" style="fill:rgb(246,249,252);"/>
        </g>
        <g transform="matrix(4.16667,0,0,4.16667,37.7262,90.2808)">
            <path d="M0,6.261L-1.768,6.261C-1.773,6.149 -1.781,6.043 -1.782,5.937C-1.783,4.761 -1.781,3.584 -1.783,2.408C-1.784,1.948 -1.952,1.791 -2.404,1.892C-2.727,1.964 -3.043,2.088 -3.346,2.224C-3.428,2.261 -3.495,2.427 -3.496,2.534C-3.507,3.659 -3.503,4.785 -3.503,5.911L-3.503,6.252L-5.265,6.252C-5.27,6.148 -5.281,6.041 -5.282,5.935C-5.283,4.769 -5.281,3.603 -5.283,2.437C-5.283,1.942 -5.456,1.792 -5.941,1.894C-6.214,1.952 -6.479,2.053 -6.782,2.145C-6.782,1.63 -6.789,1.137 -6.774,0.644L-6.601,0.449C-6.038,0.332 -5.473,0.207 -4.903,0.14C-4.518,0.095 -4.153,0.227 -3.906,0.553C-3.8,0.694 -3.715,0.659 -3.574,0.62C-2.972,0.45 -2.371,0.253 -1.756,0.16C-0.696,0 -0.097,0.487 -0.038,1.566C0.018,2.577 -0.008,3.593 -0.001,4.606C0.003,5.151 0,5.696 0,6.261" style="fill:rgb(246,249,252);fill-rule:nonzero;"/>
        </g>
        <g transform="matrix(4.16667,0,0,4.16667,151.163,66.8592)">
            <path d="M0,-0.028C0.054,-0.189 0.091,-0.291 0.121,-0.395C0.466,-1.594 0.815,-2.791 1.149,-3.992C1.203,-4.186 1.285,-4.248 1.482,-4.243C1.978,-4.23 2.474,-4.239 3.015,-4.239C2.983,-4.119 2.962,-4.026 2.934,-3.936C2.109,-1.315 1.282,1.304 0.464,3.927C0.4,4.132 0.321,4.223 0.091,4.212C-0.354,4.192 -0.799,4.206 -1.303,4.206C-1.07,3.387 -0.845,2.599 -0.603,1.748C-1.212,1.955 -1.249,1.534 -1.358,1.175C-1.903,-0.609 -2.454,-2.39 -3.012,-4.201L-2.814,-4.237C-2.368,-4.24 -1.921,-4.227 -1.475,-4.244C-1.274,-4.251 -1.196,-4.179 -1.143,-3.992C-0.804,-2.781 -0.453,-1.574 -0.106,-0.366C-0.079,-0.273 -0.048,-0.181 0,-0.028" style="fill:rgb(246,249,252);fill-rule:nonzero;"/>
        </g>
        <g transform="matrix(4.16667,0,0,4.16667,92.0171,7.06375)">
            <path d="M0,8.437C0.236,7.614 0.46,6.832 0.701,5.992C0.095,6.182 0.052,5.761 -0.061,5.388C-0.576,3.692 -1.102,1.998 -1.622,0.303C-1.649,0.217 -1.672,0.13 -1.709,-0.002C-1.13,-0.002 -0.578,-0.009 -0.026,0.009C0.037,0.011 0.124,0.151 0.15,0.241C0.529,1.534 0.899,2.83 1.299,4.222C1.357,4.046 1.392,3.952 1.419,3.856C1.764,2.659 2.113,1.462 2.447,0.261C2.503,0.061 2.581,-0.017 2.797,-0.009C3.292,0.009 3.788,-0.003 4.32,-0.003C4.281,0.136 4.255,0.242 4.223,0.345C3.405,2.946 2.584,5.545 1.774,8.148C1.705,8.369 1.613,8.454 1.376,8.443C0.933,8.422 0.488,8.437 0,8.437" style="fill:rgb(246,249,252);fill-rule:nonzero;"/>
        </g>
        <g transform="matrix(4.16667,0,0,4.16667,106.866,75.2283)">
            <path d="M0,-6.23L1.76,-6.23L1.76,-0.234C1.349,-0.234 0.952,-0.202 0.566,-0.253C0.443,-0.269 0.349,-0.502 0.277,-0.592C-0.424,-0.436 -1.116,-0.235 -1.822,-0.135C-2.779,0 -3.392,-0.424 -3.437,-1.378C-3.513,-2.984 -3.458,-4.597 -3.458,-6.227L-1.721,-6.227L-1.721,-5.899C-1.721,-4.732 -1.722,-3.566 -1.721,-2.399C-1.72,-1.922 -1.552,-1.785 -1.08,-1.867L-0.961,-1.894C-0.007,-2.131 0,-2.14 0,-3.113L0,-6.23Z" style="fill:rgb(246,249,252);fill-rule:nonzero;"/>
        </g>
        <g transform="matrix(4.16667,0,0,4.16667,36.3067,5.83417)">
            <path d="M0,6.292L-1.785,6.292L-1.785,5.962C-1.785,4.796 -1.784,3.63 -1.786,2.463C-1.787,1.963 -1.956,1.828 -2.447,1.929L-2.477,1.935C-3.462,2.144 -3.512,2.205 -3.512,3.183L-3.512,6.278L-5.267,6.278L-5.267,0.294C-4.869,0.294 -4.464,0.263 -4.069,0.312C-3.949,0.327 -3.857,0.563 -3.776,0.667C-3.173,0.515 -2.575,0.324 -1.962,0.218C-0.71,0 -0.144,0.434 -0.03,1.704C0.026,2.338 -0.004,2.98 -0.001,3.619C0.003,4.5 0,5.38 0,6.292" style="fill:rgb(246,249,252);fill-rule:nonzero;"/>
        </g>
        <g transform="matrix(4.16667,0,0,4.16667,29.0283,74.7912)">
            <path d="M0,-6.126L1.748,-6.126C1.753,-6.019 1.762,-5.912 1.763,-5.806C1.764,-4.64 1.762,-3.474 1.764,-2.308C1.764,-1.818 1.939,-1.675 2.425,-1.764C3.378,-1.937 3.491,-2.071 3.491,-3.022L3.491,-6.128L5.248,-6.128L5.248,-0.129C4.849,-0.129 4.453,-0.098 4.067,-0.147C3.943,-0.163 3.846,-0.39 3.726,-0.533C3.348,-0.416 2.942,-0.262 2.523,-0.167C2.14,-0.08 1.744,-0.023 1.352,-0.013C0.711,0.002 0.301,-0.318 0.117,-0.932C0.057,-1.135 0.006,-1.349 0.005,-1.558C-0.004,-3.068 0,-4.578 0,-6.126" style="fill:rgb(246,249,252);fill-rule:nonzero;"/>
        </g>
        <g transform="matrix(4.16667,0,0,4.16667,142.823,33.0329)">
            <path d="M0,-6.218L0,-5.874C0,-4.708 -0.001,-3.541 0.001,-2.375C0.002,-1.917 0.177,-1.756 0.624,-1.859C0.947,-1.933 1.262,-2.058 1.564,-2.196C1.647,-2.233 1.713,-2.399 1.714,-2.507C1.725,-3.622 1.721,-4.738 1.721,-5.854L1.721,-6.21L3.478,-6.21L3.478,-0.224C3.079,-0.224 2.674,-0.193 2.28,-0.243C2.16,-0.259 2.07,-0.5 2.01,-0.578C1.285,-0.421 0.582,-0.222 -0.134,-0.126C-1.067,0 -1.566,-0.412 -1.728,-1.343C-1.764,-1.551 -1.777,-1.766 -1.778,-1.979C-1.782,-3.318 -1.781,-4.657 -1.78,-5.996L-1.762,-6.218L0,-6.218Z" style="fill:rgb(246,249,252);fill-rule:nonzero;"/>
        </g>
        <g transform="matrix(4.16667,0,0,4.16667,78.9958,102.135)">
            <path d="M0,1.034L-3.176,1.034C-3.337,1.63 -3.101,2.05 -2.524,2.055C-1.861,2.06 -1.197,1.949 -0.533,1.886C-0.474,1.881 -0.416,1.86 -0.32,1.837C-0.233,2.278 -0.148,2.71 -0.057,3.173C-1.254,3.518 -2.431,3.741 -3.631,3.344C-4.46,3.069 -4.908,2.44 -4.969,1.593C-5.026,0.807 -5.039,0.009 -4.969,-0.775C-4.876,-1.827 -4.289,-2.453 -3.256,-2.622C-2.736,-2.707 -2.18,-2.707 -1.658,-2.628C-0.745,-2.491 -0.217,-1.908 -0.066,-0.988C-0.019,-0.7 -0.011,-0.404 -0.003,-0.111C0.008,0.262 0,0.634 0,1.034M-3.22,-0.314L-1.687,-0.314C-1.674,-0.648 -1.628,-0.983 -1.932,-1.185C-2.242,-1.391 -2.595,-1.373 -2.912,-1.195C-3.245,-1.008 -3.25,-0.674 -3.22,-0.314" style="fill:rgb(246,249,252);fill-rule:nonzero;"/>
        </g>
        <g transform="matrix(4.16667,0,0,4.16667,183.721,102.071)">
            <path d="M0,1.021L-3.222,1.021C-3.385,1.607 -3.145,2.031 -2.575,2.038C-1.852,2.046 -1.127,1.962 -0.348,1.914C-0.279,2.26 -0.193,2.691 -0.101,3.157C-1.337,3.51 -2.551,3.742 -3.784,3.285C-4.481,3.027 -4.914,2.485 -4.978,1.762C-5.055,0.908 -5.081,0.037 -5.006,-0.815C-4.91,-1.892 -4.294,-2.496 -3.214,-2.649C-2.711,-2.721 -2.18,-2.709 -1.676,-2.635C-0.855,-2.514 -0.295,-2.004 -0.157,-1.184C-0.037,-0.473 -0.049,0.26 0,1.021M-1.717,-0.331C-1.726,-0.704 -1.674,-1.072 -2.053,-1.243C-2.382,-1.392 -2.737,-1.388 -3.034,-1.156C-3.302,-0.946 -3.298,-0.64 -3.26,-0.331L-1.717,-0.331Z" style="fill:rgb(246,249,252);fill-rule:nonzero;"/>
        </g>
        <g transform="matrix(4.16667,0,0,4.16667,115.701,116.059)">
            <path d="M0,-5.864C-0.056,-5.385 -0.107,-4.945 -0.16,-4.496C-0.614,-4.543 -1.045,-4.591 -1.476,-4.63C-1.637,-4.644 -1.801,-4.649 -1.962,-4.638C-2.203,-4.622 -2.431,-4.582 -2.455,-4.262C-2.477,-3.962 -2.332,-3.816 -2.056,-3.749C-1.672,-3.656 -1.286,-3.566 -0.911,-3.445C-0.122,-3.189 0.116,-2.869 0.136,-2.047C0.143,-1.734 0.136,-1.416 0.088,-1.108C-0.008,-0.483 -0.394,-0.096 -0.996,0.072C-1.789,0.295 -2.585,0.212 -3.378,0.067C-3.666,0.014 -3.949,-0.065 -4.274,-0.141C-4.179,-0.585 -4.089,-1.006 -3.995,-1.439C-3.553,-1.368 -3.128,-1.288 -2.701,-1.235C-2.461,-1.205 -2.215,-1.205 -1.973,-1.217C-1.751,-1.227 -1.582,-1.325 -1.567,-1.582C-1.552,-1.831 -1.531,-2.083 -1.845,-2.176C-2.126,-2.259 -2.412,-2.331 -2.692,-2.418C-2.933,-2.493 -3.177,-2.568 -3.408,-2.67C-3.809,-2.847 -4.059,-3.157 -4.082,-3.604C-4.102,-3.987 -4.124,-4.376 -4.08,-4.755C-4.002,-5.426 -3.659,-5.787 -2.993,-5.937C-2.004,-6.159 -1.021,-6.046 0,-5.864" style="fill:rgb(246,249,252);fill-rule:nonzero;"/>
        </g>
        <g transform="matrix(4.16667,0,0,4.16667,59.7454,32.1842)">
            <path d="M0,-5.975C-0.057,-5.485 -0.107,-5.054 -0.161,-4.592C-0.514,-4.634 -0.85,-4.686 -1.188,-4.712C-1.48,-4.734 -1.776,-4.741 -2.069,-4.729C-2.276,-4.72 -2.438,-4.623 -2.455,-4.38C-2.473,-4.144 -2.419,-3.955 -2.16,-3.887C-1.778,-3.786 -1.392,-3.698 -1.014,-3.583C-0.122,-3.312 0.127,-2.975 0.148,-2.045C0.182,-0.559 -0.339,0.016 -1.821,0.092C-2.648,0.135 -3.454,-0.009 -4.271,-0.257C-4.177,-0.697 -4.088,-1.118 -4.001,-1.529C-3.473,-1.457 -2.965,-1.385 -2.457,-1.321C-2.327,-1.305 -2.193,-1.311 -2.062,-1.315C-1.811,-1.323 -1.599,-1.378 -1.564,-1.687C-1.521,-2.06 -1.59,-2.202 -1.934,-2.31C-2.302,-2.425 -2.679,-2.508 -3.045,-2.626C-3.832,-2.879 -4.071,-3.191 -4.112,-4.014C-4.125,-4.276 -4.119,-4.542 -4.095,-4.803C-4.035,-5.45 -3.711,-5.902 -3.075,-6.003C-2.401,-6.11 -1.706,-6.103 -1.02,-6.108C-0.692,-6.11 -0.362,-6.025 0,-5.975" style="fill:rgb(246,249,252);fill-rule:nonzero;"/>
        </g>
        <g transform="matrix(4.16667,0,0,4.16667,73.8975,62.4496)">
            <path d="M0,-1.749L-0.786,-1.749L-0.786,-3.173L-0.01,-3.173L-0.01,-4.621C0.597,-4.705 1.165,-4.784 1.77,-4.869L1.77,-3.187L3.151,-3.187C3.116,-2.687 3.083,-2.228 3.049,-1.74L1.779,-1.74L1.779,-0.805C1.779,-0.187 1.776,0.432 1.779,1.05C1.781,1.408 1.88,1.503 2.233,1.494C2.344,1.491 2.455,1.474 2.565,1.459C2.664,1.445 2.762,1.425 2.892,1.402C2.961,1.838 3.029,2.263 3.104,2.736C2.255,2.975 1.418,3.12 0.602,2.676C0.133,2.421 0.007,1.953 0.003,1.455C-0.005,0.512 0,-0.43 0,-1.373L0,-1.749Z" style="fill:rgb(246,249,252);fill-rule:nonzero;"/>
        </g>
        <g transform="matrix(4.16667,0,0,4.16667,67.8208,19.5463)">
            <path d="M0,-1.564L-0.783,-1.564L-0.783,-2.998L-0.005,-2.998L-0.005,-4.439C0.591,-4.523 1.16,-4.604 1.776,-4.691L1.776,-2.999L3.151,-2.999C3.119,-2.52 3.089,-2.07 3.057,-1.579L1.781,-1.579L1.781,-0.573C1.781,0.035 1.777,0.643 1.782,1.251C1.785,1.584 1.894,1.691 2.227,1.675C2.438,1.665 2.647,1.625 2.892,1.594C2.961,2.014 3.031,2.439 3.107,2.907C2.941,2.953 2.783,3.024 2.62,3.038C2.198,3.073 1.771,3.127 1.352,3.095C0.472,3.025 0.019,2.524 0.005,1.641C-0.01,0.698 0.001,-0.245 0,-1.187L0,-1.564" style="fill:rgb(246,249,252);fill-rule:nonzero;"/>
        </g>
        <g transform="matrix(4.16667,0,0,4.16667,117.037,26.07)">
            <path d="M0,-4.558L0,-6.005C0.582,-6.088 1.15,-6.169 1.766,-6.256L1.766,-4.57L3.147,-4.57C3.114,-4.081 3.083,-3.624 3.05,-3.137L1.777,-3.137L1.777,-2.631C1.777,-1.871 1.775,-1.111 1.778,-0.35C1.78,0.029 1.897,0.137 2.279,0.108C2.47,0.093 2.659,0.056 2.891,0.023C2.96,0.453 3.029,0.885 3.103,1.349C2.304,1.588 1.521,1.698 0.744,1.37C0.173,1.129 0.006,0.623 0.001,0.051C-0.007,-0.892 -0.001,-1.834 -0.001,-2.777L-0.001,-3.137L-0.793,-3.137L-0.793,-4.558L0,-4.558Z" style="fill:rgb(246,249,252);fill-rule:nonzero;"/>
        </g>
        <g transform="matrix(4.16667,0,0,4.16667,162.682,26.1167)">
            <path d="M0,-4.577L0.778,-4.577L0.778,-6.015C1.379,-6.1 1.953,-6.181 2.566,-6.268L2.566,-4.575L3.94,-4.575C3.906,-4.083 3.874,-3.632 3.84,-3.152L2.597,-3.152C2.585,-3.045 2.57,-2.968 2.57,-2.891C2.568,-2.049 2.568,-1.208 2.57,-0.366C2.571,0.017 2.685,0.126 3.065,0.097C3.265,0.082 3.463,0.044 3.683,0.014C3.752,0.448 3.819,0.875 3.892,1.338C3.088,1.578 2.297,1.691 1.512,1.347C0.958,1.104 0.796,0.605 0.793,0.044C0.786,-0.899 0.791,-1.842 0.791,-2.785L0.791,-3.146L0,-3.146L0,-4.577Z" style="fill:rgb(246,249,252);fill-rule:nonzero;"/>
        </g>
        <g transform="matrix(4.16667,0,0,4.16667,65.3129,37.9608)">
            <path d="M0,8.703L-1.744,8.703C-1.75,8.59 -1.759,8.482 -1.759,8.375C-1.76,5.77 -1.756,3.165 -1.766,0.56C-1.768,0.296 -1.69,0.213 -1.433,0.191C-0.961,0.15 -0.493,0.068 0,0L0,8.703Z" style="fill:rgb(246,249,252);fill-rule:nonzero;"/>
        </g>
        <g transform="matrix(-4.16667,0,0,4.16667,121.356,80.1025)">
            <path d="M-1.739,8.695L0,8.695L0,0.243C-0.577,0.162 -1.146,0.083 -1.739,0L-1.739,8.695Z" style="fill:rgb(246,249,252);fill-rule:nonzero;"/>
        </g>
        <g transform="matrix(4.16667,0,0,4.16667,85.8267,91.4346)">
            <path d="M0,8.628C-0.439,8.154 -0.781,7.784 -1.137,7.399C-0.978,7.238 -0.835,7.085 -0.683,6.942C-0.363,6.639 -0.219,6.283 -0.223,5.831C-0.239,4.005 -0.229,2.179 -0.229,0.352L-0.229,0L1.557,0L1.557,0.35C1.557,2.247 1.549,4.145 1.562,6.042C1.566,6.578 1.414,7.041 1.067,7.439C0.728,7.829 0.378,8.208 0,8.628" style="fill:rgb(246,249,252);fill-rule:nonzero;"/>
        </g>
        <g transform="matrix(4.16667,0,0,4.16667,190.137,91.3267)">
            <path d="M0,8.611C-0.432,8.144 -0.775,7.773 -1.138,7.38C-0.949,7.197 -0.766,7.025 -0.589,6.847C-0.325,6.583 -0.207,6.27 -0.209,5.889C-0.218,4.043 -0.213,2.196 -0.213,0.35L-0.213,0L1.566,0L1.566,0.329C1.566,2.236 1.557,4.143 1.572,6.05C1.576,6.577 1.43,7.031 1.089,7.419C0.742,7.815 0.38,8.197 0,8.611" style="fill:rgb(246,249,252);fill-rule:nonzero;"/>
        </g>
        <g transform="matrix(4.16667,0,0,4.16667,128.686,48.4808)">
            <path d="M0,6.169L-1.759,6.169L-1.759,0.189L-0.306,0.189C-0.261,0.359 -0.214,0.533 -0.171,0.697C0.352,0.471 0.868,0.247 1.438,0C1.49,0.579 1.542,1.088 1.572,1.599L1.406,1.801C1.018,1.999 0.625,2.186 0.231,2.371C0.054,2.454 -0.008,2.574 -0.005,2.776C0.006,3.79 0,4.804 0,5.819L0,6.169Z" style="fill:rgb(246,249,252);fill-rule:nonzero;"/>
        </g>
        <g transform="matrix(4.16667,0,0,4.16667,143.974,116.398)">
            <path d="M0,-6.014C-0.503,-5.063 -0.971,-4.167 -1.453,-3.278C-1.551,-3.097 -1.555,-2.961 -1.452,-2.778C-0.989,-1.958 -0.542,-1.129 -0.091,-0.302C-0.044,-0.217 -0.005,-0.126 0.057,-0C-0.556,-0 -1.129,0.007 -1.702,-0.007L-1.916,-0.173C-2.402,-1.073 -2.883,-1.975 -3.353,-2.883L-3.349,-3.184C-2.904,-4.07 -2.451,-4.953 -1.989,-5.831L-1.753,-6.006C-1.188,-6.021 -0.622,-6.014 0,-6.014" style="fill:rgb(246,249,252);fill-rule:nonzero;"/>
        </g>
        <g transform="matrix(4.16667,0,0,4.16667,23.7838,74.49)">
            <path d="M0,-6.07C-0.504,-5.116 -0.969,-4.218 -1.453,-3.329C-1.555,-3.143 -1.545,-3.01 -1.445,-2.832C-0.942,-1.931 -0.452,-1.023 0.076,-0.056C-0.392,-0.056 -0.815,-0.094 -1.228,-0.046C-1.695,0.008 -1.927,-0.172 -2.122,-0.588C-2.487,-1.367 -2.926,-2.111 -3.315,-2.88C-3.371,-2.99 -3.374,-3.175 -3.319,-3.286C-2.894,-4.15 -2.445,-5.001 -2.013,-5.862C-1.934,-6.019 -1.84,-6.078 -1.664,-6.074C-1.128,-6.063 -0.593,-6.07 0,-6.07" style="fill:rgb(246,249,252);fill-rule:nonzero;"/>
        </g>
        <g transform="matrix(-4.16667,0,0,4.16667,3116.56,-195.525)">
            <rect x="735.51" y="68.865" width="1.736" height="5.98" style="fill:rgb(246,249,252);"/>
        </g>
        <g transform="matrix(-4.16667,0,0,4.16667,3326.15,-195.755)">
            <rect x="760.662" y="68.9" width="1.734" height="5.965" style="fill:rgb(246,249,252);"/>
        </g>
    </g>
</svg>
