<?xml version="1.0" encoding="UTF-8" standalone="no"?>
<!DOCTYPE svg PUBLIC "-//W3C//DTD SVG 1.1//EN" "http://www.w3.org/Graphics/SVG/1.1/DTD/svg11.dtd">
<svg width="100%" height="100%" viewBox="0 0 198 90" version="1.1" xmlns="http://www.w3.org/2000/svg" xmlns:xlink="http://www.w3.org/1999/xlink" xml:space="preserve" xmlns:serif="http://www.serif.com/" style="fill-rule:evenodd;clip-rule:evenodd;stroke-linejoin:round;stroke-miterlimit:2;">
    <g>
        <g transform="matrix(4.16667,0,0,4.16667,197.584,23.4729)">
            <path d="M0,0.84L-4.641,0.84C-4.619,0.968 -4.621,1.058 -4.587,1.132C-4.303,1.759 -3.772,2.023 -3.122,2.074C-2.507,2.123 -1.934,1.97 -1.414,1.631C-1.327,1.574 -1.24,1.517 -1.124,1.441C-0.887,1.907 -0.659,2.355 -0.413,2.839C-0.533,2.932 -0.637,3.032 -0.758,3.101C-2.047,3.847 -3.393,3.939 -4.735,3.313C-5.867,2.786 -6.366,1.789 -6.46,0.581C-6.518,-0.165 -6.377,-0.882 -5.991,-1.531C-5.45,-2.443 -4.634,-2.937 -3.586,-3.046C-3.08,-3.099 -2.573,-3.085 -2.083,-2.927C-0.827,-2.522 -0.192,-1.602 -0.008,-0.344C0.046,0.03 0,0.419 0,0.84M-1.875,-0.434C-1.919,-1.132 -2.413,-1.584 -3.143,-1.605C-3.968,-1.63 -4.561,-1.178 -4.654,-0.434L-1.875,-0.434Z" style="fill:rgb(246,249,252);fill-rule:nonzero;"/>
        </g>
        <g transform="matrix(4.16667,0,0,4.16667,67.3496,39.3808)">
            <path d="M0,-6.721L1.726,-6.721C1.733,-6.575 1.744,-6.435 1.745,-6.295C1.746,-5.295 1.744,-4.295 1.747,-3.294C1.748,-3.109 1.759,-2.921 1.787,-2.737C1.873,-2.176 2.094,-1.905 2.525,-1.81C3.07,-1.689 3.577,-1.867 3.868,-2.296C4.125,-2.674 4.202,-3.107 4.206,-3.552C4.214,-4.446 4.21,-5.339 4.211,-6.233L4.211,-6.725C4.789,-6.75 5.34,-6.739 5.881,-6.732C5.972,-6.421 5.993,-0.801 5.909,-0.299L4.29,-0.299L4.29,-1.164C4.151,-1.025 4.077,-0.959 4.011,-0.885C3.264,-0.046 2.155,0.029 1.331,-0.264C0.608,-0.52 0.245,-1.096 0.082,-1.81C0.023,-2.068 -0.012,-2.337 -0.014,-2.602C-0.024,-3.895 -0.019,-5.189 -0.019,-6.483C-0.019,-6.547 -0.009,-6.612 0,-6.721" style="fill:rgb(246,249,252);fill-rule:nonzero;"/>
        </g>
        <g transform="matrix(4.16667,0,0,4.16667,119.662,39.6025)">
            <path d="M0,-6.769L1.75,-6.769L1.75,-6.319C1.75,-5.319 1.748,-4.319 1.752,-3.319C1.753,-3.133 1.768,-2.946 1.793,-2.762C1.848,-2.353 2.013,-2.007 2.441,-1.886C2.903,-1.754 3.343,-1.819 3.709,-2.159C3.953,-2.385 4.08,-2.681 4.136,-3.001C4.181,-3.262 4.208,-3.529 4.211,-3.795C4.22,-4.661 4.213,-5.528 4.215,-6.395C4.216,-6.512 4.229,-6.628 4.238,-6.763L5.937,-6.763L5.937,-0.356L4.301,-0.356L4.301,-1.215C4.17,-1.092 4.105,-1.039 4.049,-0.977C3.31,-0.16 2.39,0 1.383,-0.302C0.652,-0.522 0.269,-1.097 0.098,-1.813C0.033,-2.083 -0.006,-2.366 -0.008,-2.643C-0.019,-3.924 -0.013,-5.204 -0.013,-6.484C-0.013,-6.563 -0.006,-6.641 0,-6.769" style="fill:rgb(246,249,252);fill-rule:nonzero;"/>
        </g>
        <g transform="matrix(4.16667,0,0,4.16667,20.9642,10.1288)">
            <path d="M0,6.735L-1.649,6.735C-1.729,6.434 -1.752,0.889 -1.673,0.292C-1.146,0.275 -0.612,0.277 -0.057,0.291C-0.043,0.574 -0.031,0.806 -0.016,1.111C0.104,0.992 0.173,0.92 0.245,0.85C0.95,0.165 1.799,0 2.724,0.212C3.627,0.419 4.181,1.132 4.295,2.155C4.309,2.274 4.319,2.394 4.319,2.514C4.323,3.847 4.325,5.18 4.325,6.513L4.301,6.726L2.576,6.726C2.57,6.574 2.56,6.433 2.56,6.291C2.558,5.278 2.565,4.265 2.555,3.252C2.552,3.002 2.527,2.744 2.46,2.505C2.35,2.113 2.072,1.888 1.663,1.815C0.936,1.685 0.344,2.011 0.146,2.718C0.05,3.06 0.015,3.426 0.006,3.782C-0.013,4.621 0,5.462 0,6.301L0,6.735Z" style="fill:rgb(246,249,252);fill-rule:nonzero;"/>
        </g>
        <g transform="matrix(4.16667,0,0,4.16667,55.82,-0.075402)">
            <path d="M0,9.177L-1.731,9.177L-1.731,4.203L-3.004,4.203C-3.063,3.714 -3.028,3.256 -3.029,2.746L-1.737,2.746C-1.737,2.554 -1.741,2.413 -1.737,2.272C-1.697,0.902 -0.925,0.091 0.447,0.023C0.907,0 1.371,0.064 1.854,0.089L1.854,1.693C1.539,1.67 1.25,1.636 0.961,1.63C0.221,1.616 -0.034,1.904 0.031,2.706C0.599,2.77 1.182,2.697 1.75,2.747C1.846,3.042 1.861,3.697 1.779,4.18L0,4.18L0,9.177Z" style="fill:rgb(246,249,252);fill-rule:nonzero;"/>
        </g>
        <g transform="matrix(4.16667,0,0,4.16667,197.573,72.925)">
            <path d="M0,0.977L-5.103,0.977C-5.103,1.112 -5.118,1.215 -5.101,1.313C-4.946,2.213 -4.235,2.858 -3.323,2.943C-2.504,3.02 -1.798,2.781 -1.209,2.204C-1.143,2.139 -1.074,2.077 -0.976,1.986C-0.78,2.269 -0.594,2.538 -0.389,2.834C-0.812,3.348 -1.343,3.688 -1.966,3.868C-2.686,4.076 -3.419,4.072 -4.135,3.847C-5.119,3.539 -5.786,2.887 -6.096,1.902C-6.426,0.851 -6.358,-0.182 -5.834,-1.159C-4.793,-3.099 -2.452,-3.039 -1.329,-2.279C-0.479,-1.704 -0.114,-0.858 -0.004,0.123C0.025,0.384 0,0.652 0,0.977M-5.047,0.033L-1.241,0.033C-1.348,-1.099 -2.017,-1.712 -3.103,-1.71C-4.211,-1.708 -4.975,-0.978 -5.047,0.033" style="fill:rgb(246,249,252);fill-rule:nonzero;"/>
        </g>
        <g transform="matrix(4.16667,0,0,4.16667,100.735,25.8279)">
            <path d="M0,-2.025L-1.139,-2.025L-1.139,-3.472L0.014,-3.472L0.014,-5.192L1.724,-5.192L1.724,-3.492L3.362,-3.492L3.362,-2.056C2.841,-1.977 2.309,-2.068 1.768,-2.001C1.755,-1.903 1.735,-1.814 1.735,-1.724C1.732,-0.938 1.73,-0.151 1.735,0.635C1.738,1.169 1.935,1.354 2.473,1.327C2.738,1.314 3.001,1.274 3.297,1.243L3.297,2.848C2.559,3.045 1.805,3.167 1.046,2.91C0.401,2.691 0.137,2.164 0.05,1.532C0.019,1.309 0.022,1.08 0.021,0.854C0.018,0.041 0.021,-0.772 0.019,-1.585C0.019,-1.716 0.008,-1.846 0,-2.025" style="fill:rgb(246,249,252);fill-rule:nonzero;"/>
        </g>
        <g transform="matrix(4.16667,0,0,4.16667,17.595,60.7746)">
            <path d="M0,6.767L-1.099,6.767L-1.099,0.329C-0.935,0.324 -0.767,0.316 -0.599,0.314C-0.428,0.311 -0.256,0.313 -0.039,0.313L-0.039,1.082C0.105,0.959 0.179,0.894 0.254,0.83C1.147,0.073 2.153,-0.037 3.21,0.382C3.941,0.672 4.283,1.311 4.445,2.047C4.502,2.306 4.535,2.575 4.537,2.84C4.546,4.066 4.542,5.293 4.541,6.52C4.541,6.587 4.532,6.653 4.524,6.772C4.16,6.804 3.797,6.797 3.392,6.77C3.384,6.61 3.372,6.468 3.372,6.327C3.37,5.22 3.379,4.113 3.365,3.006C3.362,2.717 3.331,2.416 3.245,2.142C3.096,1.663 2.75,1.368 2.254,1.251C1.287,1.024 0.428,1.498 0.173,2.453C0.064,2.861 0.021,3.294 0.009,3.717C-0.016,4.583 0,5.45 0,6.317L0,6.767" style="fill:rgb(246,249,252);fill-rule:nonzero;"/>
        </g>
        <g transform="matrix(4.16667,0,0,4.16667,41.3883,67.5604)">
            <path d="M0,3.78C0.305,3.587 0.592,3.404 0.877,3.223L0.99,3.311C1.581,4.136 2.659,4.48 3.613,4.149C3.924,4.042 4.15,3.856 4.202,3.513C4.259,3.134 4.132,2.851 3.764,2.708C3.395,2.564 2.999,2.488 2.616,2.378C2.245,2.272 1.865,2.19 1.509,2.046C0.794,1.758 0.355,1.251 0.359,0.437C0.364,-0.341 0.773,-0.96 1.538,-1.251C2.422,-1.587 3.316,-1.569 4.185,-1.189C4.688,-0.97 5.058,-0.593 5.344,-0.072C5.049,0.12 4.764,0.304 4.46,0.501L4.295,0.32C3.779,-0.49 2.615,-0.549 2,-0.279C1.711,-0.152 1.501,0.043 1.494,0.376C1.487,0.714 1.696,0.924 1.99,1.03C2.327,1.152 2.676,1.24 3.022,1.337C3.419,1.448 3.827,1.527 4.213,1.667C4.9,1.915 5.307,2.395 5.341,3.157C5.376,3.959 5.106,4.595 4.373,4.982C4.198,5.074 4.006,5.148 3.814,5.189C2.962,5.367 2.117,5.351 1.303,5.007C0.736,4.767 0.289,4.386 0,3.78" style="fill:rgb(246,249,252);fill-rule:nonzero;"/>
        </g>
        <g transform="matrix(4.16667,0,0,4.16667,142.379,89.6092)">
            <path d="M0,-6.581L1.045,-6.581C1.133,-6.307 1.156,-0.629 1.066,-0.161L0.842,-0.132C0.592,-0.128 0.341,-0.131 0.044,-0.131L0.044,-0.992C-0.106,-0.842 -0.188,-0.765 -0.265,-0.684C-0.681,-0.248 -1.187,-0.009 -1.792,-0.009C-2.111,-0.009 -2.438,0 -2.747,-0.063C-3.464,-0.209 -3.97,-0.639 -4.216,-1.335C-4.313,-1.609 -4.411,-1.901 -4.414,-2.186C-4.434,-3.637 -4.424,-5.088 -4.424,-6.573L-3.318,-6.573C-3.313,-6.447 -3.301,-6.307 -3.301,-6.166C-3.299,-5.074 -3.304,-3.981 -3.296,-2.888C-3.294,-2.623 -3.274,-2.354 -3.226,-2.094C-3.108,-1.45 -2.7,-1.103 -2.042,-1.056C-0.982,-0.982 -0.332,-1.459 -0.122,-2.496C-0.054,-2.833 -0.029,-3.183 -0.023,-3.527C-0.01,-4.406 -0.019,-5.286 -0.018,-6.166C-0.018,-6.296 -0.007,-6.426 0,-6.581" style="fill:rgb(246,249,252);fill-rule:nonzero;"/>
        </g>
        <g transform="matrix(4.16667,0,0,4.16667,158.239,10.5492)">
            <path d="M0,6.626L-1.713,6.626L-1.713,0.208L-0.076,0.208L-0.076,1.003C0.265,0.654 0.563,0.302 1.019,0.149C1.459,0 1.903,0 2.374,0.115L2.374,1.882C2.051,1.882 1.737,1.871 1.423,1.885C0.686,1.917 0.23,2.296 0.079,3.013C0.027,3.258 0.006,3.513 0.004,3.764C-0.006,4.577 0,5.389 0,6.201L0,6.626Z" style="fill:rgb(246,249,252);fill-rule:nonzero;"/>
        </g>
        <g transform="matrix(4.16667,0,0,4.16667,66.6633,78.2688)">
            <path d="M0,-2.895L0,-3.868L1.24,-3.868C1.29,-4.457 1.242,-5.011 1.273,-5.592L2.389,-5.592L2.389,-3.895L4.128,-3.895L4.128,-2.921L2.445,-2.921C2.424,-2.799 2.395,-2.712 2.395,-2.625C2.392,-1.493 2.393,-0.36 2.394,0.772L2.41,1.01C2.476,1.399 2.658,1.573 3.056,1.577C3.413,1.58 3.769,1.547 4.155,1.528L4.155,2.486C3.563,2.665 2.971,2.697 2.379,2.57C1.816,2.45 1.474,2.078 1.35,1.522C1.296,1.277 1.269,1.022 1.267,0.771C1.258,-0.295 1.263,-1.361 1.263,-2.426L1.263,-2.895L0,-2.895Z" style="fill:rgb(246,249,252);fill-rule:nonzero;"/>
        </g>
        <g transform="matrix(4.16667,0,0,4.16667,118.531,82.4517)">
            <path d="M0,-4.901L0,-3.928L-1.696,-3.928C-1.717,-3.807 -1.746,-3.72 -1.746,-3.633C-1.749,-2.487 -1.753,-1.34 -1.743,-0.193C-1.742,-0.026 -1.704,0.155 -1.631,0.305C-1.529,0.515 -1.316,0.583 -1.089,0.576C-0.733,0.565 -0.378,0.543 0.003,0.524L0.003,1.482C-0.58,1.662 -1.162,1.693 -1.741,1.573C-2.409,1.435 -2.783,0.954 -2.859,0.191C-2.877,0.005 -2.875,-0.182 -2.876,-0.369C-2.877,-1.382 -2.877,-2.395 -2.877,-3.409L-2.877,-3.886L-4.119,-3.886L-4.119,-4.878L-2.89,-4.878L-2.89,-6.594L-1.756,-6.594L-1.756,-4.901L0,-4.901Z" style="fill:rgb(246,249,252);fill-rule:nonzero;"/>
        </g>
        <g transform="matrix(4.16667,0,0,4.16667,168.494,78.2379)">
            <path d="M0,-2.89L-1.713,-2.89C-1.721,-2.723 -1.733,-2.593 -1.733,-2.463C-1.735,-1.41 -1.734,-0.356 -1.734,0.697C-1.734,0.791 -1.737,0.885 -1.727,0.977C-1.681,1.382 -1.484,1.58 -1.075,1.584C-0.72,1.588 -0.364,1.554 0.017,1.536L0.017,2.495C-0.566,2.672 -1.148,2.705 -1.727,2.585C-2.397,2.446 -2.766,1.969 -2.845,1.201C-2.863,1.016 -2.861,0.829 -2.861,0.642C-2.863,-0.372 -2.862,-1.385 -2.862,-2.398L-2.862,-2.889L-4.12,-2.889L-4.12,-3.866L-2.864,-3.866L-2.864,-5.595L-1.743,-5.595L-1.743,-3.891L0,-3.891L0,-2.89Z" style="fill:rgb(246,249,252);fill-rule:nonzero;"/>
        </g>
        <g transform="matrix(-4.16667,0,0,4.16667,3026.56,-149.23)">
            <rect x="724.682" y="38.558" width="1.692" height="6.406" style="fill:rgb(246,249,252);"/>
        </g>
        <g transform="matrix(4.16667,0,0,4.16667,0.585417,89.1708)">
            <path d="M0,-6.483L1.077,-6.483L1.077,-0.09C0.789,-0.008 0.429,0 0,-0.072L0,-6.483Z" style="fill:rgb(246,249,252);fill-rule:nonzero;"/>
        </g>
        <g transform="matrix(4.16667,0,0,4.16667,90.9013,62.0879)">
            <path d="M0,6.474L0,-0.002L1.037,-0.002C1.126,0.306 1.143,5.992 1.06,6.446L0.878,6.473C0.6,6.476 0.323,6.474 0,6.474" style="fill:rgb(246,249,252);fill-rule:nonzero;"/>
        </g>
    </g>
</svg>
