<?xml version="1.0" encoding="UTF-8" standalone="no"?>
<!DOCTYPE svg PUBLIC "-//W3C//DTD SVG 1.1//EN" "http://www.w3.org/Graphics/SVG/1.1/DTD/svg11.dtd">
<svg width="100%" height="100%" viewBox="0 0 900 627" version="1.1" xmlns="http://www.w3.org/2000/svg" xmlns:xlink="http://www.w3.org/1999/xlink" xml:space="preserve" xmlns:serif="http://www.serif.com/" style="fill-rule:evenodd;clip-rule:evenodd;stroke-linecap:round;stroke-linejoin:round;stroke-miterlimit:1.5;">
    <g transform="matrix(1.13434,-0.0737257,0.0737257,1.13434,-126.237,-177.876)">
        <path d="M134,276C171,230.167 234.655,207.057 298,208C365.167,209 425.833,230.833 483,242C522.258,249.668 632.518,236.52 662,254C745.857,303.719 734.116,380.88 786,419C824.559,447.331 854,437.5 859,486C864,534.5 814.518,614.158 760,644C696.667,678.667 608.623,708.886 479,694C378.613,682.471 251.397,620.683 202,588C145.476,550.602 113.803,505.171 104,459C93.412,409.134 97,321.833 134,276Z" style="fill:none;stroke:rgb(44,124,192);stroke-width:0.88px;"/>
    </g>
</svg>
