<?xml version="1.0" encoding="UTF-8" standalone="no"?>
<!DOCTYPE svg PUBLIC "-//W3C//DTD SVG 1.1//EN" "http://www.w3.org/Graphics/SVG/1.1/DTD/svg11.dtd">
<svg width="100%" height="100%" viewBox="0 0 156 156" version="1.1" xmlns="http://www.w3.org/2000/svg" xmlns:xlink="http://www.w3.org/1999/xlink" xml:space="preserve" xmlns:serif="http://www.serif.com/" style="fill-rule:evenodd;clip-rule:evenodd;stroke-linejoin:round;stroke-miterlimit:2;">
    <g transform="matrix(4.16667,0,0,4.16667,77.825,155.654)">
        <path d="M0,-37.357C-10.3,-37.357 -18.678,-28.978 -18.678,-18.679C-18.678,-8.379 -10.3,0 0,0C10.3,0 18.678,-8.379 18.678,-18.679C18.678,-28.978 10.3,-37.357 0,-37.357M0,-0.514C-10.015,-0.514 -18.165,-8.662 -18.165,-18.679C-18.165,-28.695 -10.015,-36.843 0,-36.843C10.016,-36.843 18.165,-28.695 18.165,-18.679C18.165,-8.662 10.016,-0.514 0,-0.514" style="fill:white;fill-rule:nonzero;"/>
    </g>
    <g transform="matrix(4.16667,0,0,4.16667,114.049,101.734)">
        <path d="M0,-12.527C1.173,-13.05 1.993,-14.226 1.993,-15.59C1.993,-17.441 0.489,-18.945 -1.362,-18.945C-3.211,-18.945 -4.715,-17.441 -4.715,-15.59C-4.715,-14.224 -3.893,-13.047 -2.717,-12.525C-3.576,-12.329 -4.364,-11.952 -5.044,-11.436C-5.66,-12.143 -6.563,-12.591 -7.57,-12.591C-9.421,-12.591 -10.925,-11.087 -10.925,-9.236C-10.925,-7.87 -10.102,-6.692 -8.927,-6.17C-9.811,-5.968 -10.621,-5.577 -11.314,-5.038C-11.93,-5.758 -12.843,-6.216 -13.863,-6.216C-15.712,-6.216 -17.218,-4.712 -17.218,-2.861C-17.218,-1.497 -16.397,-0.322 -15.226,0.202C-17.944,0.823 -19.979,3.257 -19.979,6.161L-19.979,6.418L-7.752,6.418L-7.752,6.161C-7.752,3.258 -9.785,0.824 -12.502,0.203C-12.395,0.154 -12.291,0.101 -12.19,0.042L-1.459,0.042L-1.459,-0.214C-1.459,-3.117 -3.493,-5.551 -6.21,-6.173C-6.115,-6.214 -6.025,-6.262 -5.936,-6.312L4.75,-6.312L4.75,-6.568C4.75,-9.471 2.717,-11.905 0,-12.527M-4.202,-15.59C-4.202,-17.157 -2.927,-18.432 -1.362,-18.432C0.205,-18.432 1.48,-17.157 1.48,-15.59C1.48,-14.024 0.205,-12.75 -1.362,-12.75C-2.927,-12.75 -4.202,-14.024 -4.202,-15.59M-8.272,5.903L-19.459,5.903C-19.324,2.935 -16.866,0.561 -13.865,0.561C-10.864,0.561 -8.407,2.935 -8.272,5.903M-13.863,-0.02C-15.429,-0.02 -16.703,-1.294 -16.703,-2.861C-16.703,-4.427 -15.429,-5.702 -13.863,-5.702C-12.296,-5.702 -11.022,-4.427 -11.022,-2.861C-11.022,-1.294 -12.296,-0.02 -13.863,-0.02M-1.979,-0.472L-11.513,-0.472C-10.893,-1.081 -10.508,-1.926 -10.508,-2.861C-10.508,-3.506 -10.694,-4.107 -11.01,-4.618C-10.061,-5.363 -8.871,-5.814 -7.573,-5.814C-4.571,-5.814 -2.114,-3.439 -1.979,-0.472M-7.57,-6.395C-9.137,-6.395 -10.412,-7.669 -10.412,-9.236C-10.412,-10.802 -9.137,-12.078 -7.57,-12.078C-6.004,-12.078 -4.73,-10.802 -4.73,-9.236C-4.73,-7.669 -6.004,-6.395 -7.57,-6.395M-5.243,-6.826C-4.611,-7.436 -4.215,-8.29 -4.215,-9.236C-4.215,-9.892 -4.408,-10.503 -4.735,-11.021C-3.796,-11.735 -2.632,-12.168 -1.364,-12.168C1.638,-12.168 4.096,-9.795 4.23,-6.826L-5.243,-6.826Z" style="fill:white;fill-rule:nonzero;"/>
    </g>
</svg>
