<?xml version="1.0" encoding="UTF-8" standalone="no"?>
<!DOCTYPE svg PUBLIC "-//W3C//DTD SVG 1.1//EN" "http://www.w3.org/Graphics/SVG/1.1/DTD/svg11.dtd">
<svg width="100%" height="100%" viewBox="0 0 156 156" version="1.1" xmlns="http://www.w3.org/2000/svg" xmlns:xlink="http://www.w3.org/1999/xlink" xml:space="preserve" xmlns:serif="http://www.serif.com/" style="fill-rule:evenodd;clip-rule:evenodd;stroke-linejoin:round;stroke-miterlimit:2;">
    <g transform="matrix(4.16667,0,0,4.16667,77.8292,155.662)">
        <path d="M0,-37.359C-10.3,-37.359 -18.679,-28.979 -18.679,-18.68C-18.679,-8.38 -10.3,0 0,0C10.3,0 18.679,-8.38 18.679,-18.68C18.679,-28.979 10.3,-37.359 0,-37.359M0,-0.514C-10.016,-0.514 -18.166,-8.663 -18.166,-18.68C-18.166,-28.696 -10.016,-36.845 0,-36.845C10.016,-36.845 18.166,-28.696 18.166,-18.68C18.166,-8.663 10.016,-0.514 0,-0.514" style="fill:white;fill-rule:nonzero;"/>
    </g>
    <g transform="matrix(4.16667,0,0,4.16667,96.51,56.0317)">
        <path d="M0,8.798C-0.875,7.385 -2.395,6.416 -4.149,6.311L-4.149,2.271C0.315,2.17 3.917,-1.491 3.917,-5.979C3.917,-6.126 3.799,-6.245 3.653,-6.245C-0.24,-6.245 -3.51,-3.536 -4.376,0.094C-5.243,-3.536 -8.513,-6.245 -12.405,-6.245C-12.552,-6.245 -12.67,-6.126 -12.67,-5.979C-12.67,-1.517 -9.109,2.128 -4.679,2.269L-4.679,6.306C-6.478,6.379 -8.042,7.357 -8.933,8.797C-12.186,8.851 -14.816,11.513 -14.816,14.779C-14.816,14.925 -14.698,15.043 -14.551,15.043L5.584,15.043C5.73,15.043 5.85,14.925 5.85,14.779C5.85,11.524 3.238,8.87 0,8.798M3.381,-5.708C3.245,-1.811 0.211,1.361 -3.629,1.711L0.828,-2.745C0.932,-2.849 0.932,-3.017 0.828,-3.12C0.724,-3.223 0.557,-3.223 0.453,-3.12L-4.045,1.378C-3.729,-2.498 -0.542,-5.571 3.381,-5.708M-12.133,-5.708C-8.236,-5.572 -5.064,-2.537 -4.713,1.301L-9.171,-3.156C-9.273,-3.258 -9.441,-3.258 -9.545,-3.156C-9.649,-3.052 -9.649,-2.884 -9.545,-2.781L-5.047,1.717C-8.923,1.402 -11.996,-1.785 -12.133,-5.708M-14.279,14.513C-14.148,11.762 -11.965,9.544 -9.232,9.344C-9.347,9.593 -9.446,9.851 -9.521,10.118L-8.971,10.118C-8.361,8.212 -6.573,6.826 -4.466,6.826C-2.36,6.826 -0.572,8.212 0.038,10.118L0.588,10.118C0.512,9.851 0.414,9.594 0.299,9.346C3.017,9.562 5.181,11.773 5.313,14.513L-14.279,14.513Z" style="fill:white;fill-rule:nonzero;"/>
    </g>
</svg>
