<?xml version="1.0" encoding="UTF-8" standalone="no"?>
<!DOCTYPE svg PUBLIC "-//W3C//DTD SVG 1.1//EN" "http://www.w3.org/Graphics/SVG/1.1/DTD/svg11.dtd">
<svg width="100%" height="100%" viewBox="0 0 156 156" version="1.1" xmlns="http://www.w3.org/2000/svg" xmlns:xlink="http://www.w3.org/1999/xlink" xml:space="preserve" xmlns:serif="http://www.serif.com/" style="fill-rule:evenodd;clip-rule:evenodd;stroke-linejoin:round;stroke-miterlimit:2;">
    <g transform="matrix(4.16667,0,0,4.16667,77.825,155.65)">
        <path d="M0,-37.356C-10.299,-37.356 -18.678,-28.977 -18.678,-18.678C-18.678,-8.379 -10.299,0 0,0C10.299,0 18.678,-8.379 18.678,-18.678C18.678,-28.977 10.299,-37.356 0,-37.356M9.412,-3.148L9.412,-7.192C9.874,-7.308 10.218,-7.722 10.218,-8.22C10.218,-8.807 9.742,-9.283 9.155,-9.283C8.569,-9.283 8.092,-8.807 8.092,-8.22C8.092,-7.722 8.436,-7.308 8.899,-7.192L8.899,-2.852C6.35,-1.414 3.422,-0.574 0.306,-0.522L0.306,-9.026L4.859,-9.026L4.859,-16.298C5.322,-16.414 5.665,-16.828 5.665,-17.327C5.665,-17.914 5.189,-18.389 4.602,-18.389C4.015,-18.389 3.539,-17.914 3.539,-17.327C3.539,-16.828 3.883,-16.414 4.345,-16.298L4.345,-9.54L-0.209,-9.54L-0.209,-0.519C-1.632,-0.536 -3.017,-0.716 -4.345,-1.043L-4.345,-16.298C-3.883,-16.414 -3.54,-16.828 -3.54,-17.327C-3.54,-17.914 -4.015,-18.389 -4.602,-18.389C-5.189,-18.389 -5.665,-17.914 -5.665,-17.327C-5.665,-16.828 -5.322,-16.414 -4.859,-16.298L-4.859,-1.179C-6.246,-1.565 -7.567,-2.11 -8.8,-2.796L-8.8,-9.54L-11.52,-9.54C-11.635,-10.002 -12.05,-10.346 -12.547,-10.346C-13.135,-10.346 -13.611,-9.87 -13.611,-9.283C-13.611,-8.697 -13.135,-8.22 -12.547,-8.22C-12.05,-8.22 -11.635,-8.564 -11.52,-9.026L-9.315,-9.026L-9.315,-3.092C-13.201,-5.423 -16.144,-9.166 -17.438,-13.605L-11.15,-13.583C-11.035,-13.12 -10.619,-12.773 -10.12,-12.773C-9.534,-12.773 -9.057,-13.249 -9.057,-13.837C-9.057,-14.423 -9.534,-14.899 -10.12,-14.899C-10.618,-14.899 -11.033,-14.556 -11.148,-14.093L-17.576,-14.093C-17.959,-15.558 -18.164,-17.095 -18.164,-18.678C-18.164,-20.055 -18.005,-21.396 -17.713,-22.685L-13.867,-22.685L-13.867,-18.133L-11.148,-18.133C-11.033,-17.67 -10.618,-17.327 -10.12,-17.327C-9.534,-17.327 -9.057,-17.803 -9.057,-18.389C-9.057,-18.977 -9.534,-19.453 -10.12,-19.453C-10.618,-19.453 -11.033,-19.108 -11.148,-18.647L-13.354,-18.647L-13.354,-23.199L-17.601,-23.17C-17.235,-24.602 -16.698,-25.965 -16.014,-27.239L-4.761,-27.239L-4.761,-25.034C-5.223,-24.918 -5.567,-24.504 -5.567,-24.005C-5.567,-23.418 -5.091,-22.943 -4.504,-22.943C-3.917,-22.943 -3.441,-23.418 -3.441,-24.005C-3.441,-24.504 -3.786,-24.918 -4.247,-25.034L-4.247,-27.753L-15.724,-27.753C-14.858,-29.247 -13.787,-30.605 -12.548,-31.792L-6.595,-31.792C-6.48,-31.33 -6.065,-30.986 -5.567,-30.986C-4.98,-30.986 -4.504,-31.462 -4.504,-32.049C-4.504,-32.636 -4.98,-33.112 -5.567,-33.112C-6.065,-33.112 -6.48,-32.768 -6.595,-32.306L-11.989,-32.306C-8.836,-35.083 -4.719,-36.785 -0.209,-36.837L-0.209,-16.441C-0.67,-16.326 -1.014,-15.911 -1.014,-15.413C-1.014,-14.827 -0.539,-14.35 0.049,-14.35C0.636,-14.35 1.111,-14.827 1.111,-15.413C1.111,-15.911 0.768,-16.326 0.306,-16.441L0.306,-36.834C1.696,-36.811 3.048,-36.633 4.345,-36.313L4.345,-25.034C3.883,-24.918 3.539,-24.504 3.539,-24.005C3.539,-23.418 4.015,-22.943 4.602,-22.943C5.189,-22.943 5.665,-23.418 5.665,-24.005C5.665,-24.504 5.322,-24.918 4.859,-25.034L4.859,-36.177C8.211,-35.245 11.176,-33.378 13.451,-30.871L13.451,-27.753L8.899,-27.753L8.899,-20.48C8.436,-20.365 8.092,-19.95 8.092,-19.453C8.092,-18.866 8.569,-18.389 9.155,-18.389C9.742,-18.389 10.218,-18.866 10.218,-19.453C10.218,-19.95 9.874,-20.365 9.412,-20.48L9.412,-27.239L13.965,-27.239L13.965,-30.278C15.655,-28.247 16.913,-25.843 17.592,-23.21L13.451,-23.199L13.451,-14.093L10.32,-14.093C10.205,-14.556 9.79,-14.899 9.292,-14.899C8.706,-14.899 8.229,-14.423 8.229,-13.837C8.229,-13.249 8.706,-12.773 9.292,-12.773C9.79,-12.773 10.205,-13.117 10.32,-13.579L13.965,-13.579L13.965,-22.685L17.715,-22.673C18.006,-21.386 18.164,-20.051 18.164,-18.678C18.164,-12.106 14.655,-6.337 9.412,-3.148" style="fill:white;fill-rule:nonzero;"/>
    </g>
</svg>
