<?xml version="1.0" encoding="UTF-8" standalone="no"?>
<!DOCTYPE svg PUBLIC "-//W3C//DTD SVG 1.1//EN" "http://www.w3.org/Graphics/SVG/1.1/DTD/svg11.dtd">
<svg width="100%" height="100%" viewBox="0 0 156 156" version="1.1" xmlns="http://www.w3.org/2000/svg" xmlns:xlink="http://www.w3.org/1999/xlink" xml:space="preserve" xmlns:serif="http://www.serif.com/" style="fill-rule:evenodd;clip-rule:evenodd;stroke-linejoin:round;stroke-miterlimit:2;">
    <g transform="matrix(4.16667,0,0,4.16667,77.8292,155.662)">
        <path d="M0,-37.359C-10.3,-37.359 -18.679,-28.979 -18.679,-18.68C-18.679,-8.38 -10.3,0 0,0C10.3,0 18.679,-8.38 18.679,-18.68C18.679,-28.979 10.3,-37.359 0,-37.359M0,-0.514C-10.016,-0.514 -18.165,-8.663 -18.165,-18.68C-18.165,-28.696 -10.016,-36.845 0,-36.845C10.016,-36.845 18.166,-28.696 18.166,-18.68C18.166,-8.663 10.016,-0.514 0,-0.514" style="fill:white;fill-rule:nonzero;"/>
    </g>
    <g transform="matrix(4.16667,0,0,4.16667,119.335,105.911)">
        <path d="M0,-12.884L0.418,-13.273L-1.915,-15.782L-4.247,-13.273L-3.83,-12.884L-2.2,-14.637L-2.2,2.327L-5.652,2.327L-5.652,-1.56L-6.222,-1.56L-6.222,2.327L-9.674,2.327L-9.674,-12.062L-8.044,-10.307L-7.625,-10.696L-9.958,-13.206L-12.291,-10.696L-11.873,-10.307L-10.244,-12.061L-10.244,2.327L-13.695,2.327L-13.695,-1.56L-14.265,-1.56L-14.265,2.327L-17.716,2.327L-17.716,-8.712L-16.086,-6.958L-15.669,-7.348L-18.001,-9.856L-20.335,-7.348L-19.916,-6.958L-18.287,-8.711L-18.287,2.327L-20.013,2.327L-20.013,2.898L0.095,2.898L0.095,2.327L-1.63,2.327L-1.63,-14.638L0,-12.884Z" style="fill:white;fill-rule:nonzero;"/>
    </g>
</svg>
